M48
INCH,TZ
T1C0.0138
T2C0.0300
T3C0.0394
T4C0.0492
T5C0.0512
T6C0.0591
%
G90
G05
T1
X20150Y-33700
X21000Y-32038
X21200Y-35800
X21250Y-40100
X22350Y-34800
X22400Y-28350
X22400Y-33800
X22700Y-31300
X22700Y-33800
X22724Y-28187
X23000Y-33800
X23200Y-28200
X23400Y-31400
X23411Y-36411
X23650Y-31700
X23700Y-37200
X23700Y-37600
X23800Y-33800
X23800Y-36600
X24012Y-34800
X24100Y-37200
X24100Y-37600
X25150Y-28200
X25250Y-35800
X25900Y-34800
X26200Y-39100
X26200Y-39600
X26200Y-40100
X26415Y-28215
X26650Y-31700
X26700Y-33900
X26700Y-39300
X27000Y-34850
X27950Y-33300
X28150Y-35800
X28382Y-37682
X28800Y-31400
X29550Y-33050
X29600Y-34800
X29750Y-37700
X30750Y-31100
X30908Y-37992
X31450Y-27200
X31450Y-29050
X32500Y-34800
X32650Y-36950
X32650Y-37700
X32700Y-24900
X32700Y-35500
X32738Y-32100
X33100Y-33100
X33100Y-35500
X33100Y-36150
X33100Y-38500
X33300Y-26900
X33488Y-38988
X33500Y-36500
X33650Y-27250
X33650Y-28250
X33850Y-31700
X33850Y-36950
X34500Y-33900
X35600Y-39300
X36400Y-31100
X37000Y-33100
X39650Y-31400
X40690Y-32360
X42100Y-38400
X42150Y-33100
X42690Y-36405
X45250Y-32350
X48700Y-37000
X49500Y-37700
X49746Y-26613
X50650Y-32400
X50750Y-33800
X50882Y-35982
X51262Y-27723
X51500Y-25100
X52300Y-34200
X53150Y-35391
X54000Y-33500
T2
X33100Y-28900
X33100Y-39900
X34100Y-28900
X34100Y-39900
X35100Y-28900
X35100Y-39900
X36100Y-28900
X36100Y-39900
X37100Y-28900
X37100Y-39900
X38100Y-28900
X38100Y-39900
X39100Y-28900
X39100Y-39900
X40100Y-28900
X40100Y-39900
X41100Y-28900
X41100Y-39900
X42100Y-28900
X42100Y-39900
X43100Y-28900
X43100Y-39900
X44100Y-28900
X44100Y-39900
X45100Y-28900
X45100Y-39900
X46100Y-28900
X46100Y-39900
X47100Y-28900
X47100Y-39900
T3
X28800Y-27200
X28800Y-32909
X29784Y-27200
X30769Y-27200
X30769Y-32909
X35600Y-34500
X35600Y-35500
X35600Y-36500
X35600Y-37500
X40900Y-25300
X41900Y-25300
X42900Y-25300
X43900Y-25300
X51100Y-22200
X54092Y-22200
T4
X35953Y-21960
X35953Y-24500
X48748Y-21960
X48748Y-24520
T5
X20798Y-21700
X22176Y-21700
X23554Y-21700
X24932Y-21700
X26310Y-21700
X27688Y-21700
X29066Y-21700
X30444Y-21700
X31822Y-21700
X33200Y-21700
X52500Y-38400
X53878Y-38400
T6
G00X27580Y-29897
M15
G01X27580Y-30409
M16
G05
G00X31989Y-29897
M15
G01X31989Y-30409
M16
G05
T0
M30
