M48
; DRILL file {KiCad 5.1.12-84ad8e8a86~92~ubuntu20.04.1} date ven 11 feb 2022, 20:29:00
; FORMAT={-:-/ absolute / metric / decimal}
; #@! TF.CreationDate,2022-02-11T20:29:00+01:00
; #@! TF.GenerationSoftware,Kicad,Pcbnew,5.1.12-84ad8e8a86~92~ubuntu20.04.1
; #@! TF.FileFunction,Plated,1,2,PTH
FMAT,2
METRIC
T1C0.350
T2C0.762
T3C1.000
T4C1.250
T5C1.300
T6C1.500
%
G90
G05
T1
X51.181Y-85.598
X53.34Y-81.377
X53.848Y-90.932
X53.975Y-101.854
X56.769Y-88.392
X56.896Y-72.009
X56.896Y-85.852
X57.658Y-79.502
X57.658Y-85.852
X57.718Y-71.594
X58.42Y-85.852
X58.928Y-71.628
X59.436Y-79.756
X59.465Y-92.485
X60.071Y-80.518
X60.198Y-94.488
X60.198Y-95.504
X60.452Y-85.852
X60.452Y-92.964
X60.991Y-88.392
X61.214Y-94.488
X61.214Y-95.504
X63.881Y-71.628
X64.135Y-90.932
X65.786Y-88.392
X66.548Y-99.314
X66.548Y-100.584
X66.548Y-101.854
X67.093Y-71.665
X67.691Y-80.518
X67.818Y-86.106
X67.818Y-99.822
X68.58Y-88.519
X70.993Y-84.582
X71.501Y-90.932
X72.089Y-95.711
X73.152Y-79.756
X75.057Y-83.947
X75.184Y-88.392
X75.565Y-95.758
X78.105Y-78.994
X78.505Y-96.501
X79.883Y-69.088
X79.883Y-73.787
X82.55Y-88.392
X82.931Y-93.853
X82.931Y-95.758
X83.058Y-63.246
X83.058Y-90.17
X83.155Y-81.534
X84.074Y-84.074
X84.074Y-90.17
X84.074Y-91.821
X84.074Y-97.79
X84.582Y-68.326
X85.06Y-99.03
X85.09Y-92.71
X85.471Y-69.215
X85.471Y-71.755
X85.979Y-80.518
X85.979Y-93.853
X87.63Y-86.106
X90.424Y-99.822
X92.456Y-78.994
X93.98Y-84.074
X100.711Y-79.756
X103.352Y-82.195
X106.934Y-97.536
X107.061Y-84.074
X108.432Y-92.468
X114.935Y-82.169
X123.698Y-93.98
X125.73Y-95.758
X126.354Y-67.598
X128.651Y-82.296
X128.905Y-85.852
X129.239Y-91.393
X130.205Y-70.416
X130.81Y-63.754
X132.842Y-86.868
X135.001Y-89.892
X137.16Y-85.09
T2
X84.074Y-73.406
X84.074Y-101.346
X86.614Y-73.406
X86.614Y-101.346
X89.154Y-73.406
X89.154Y-101.346
X91.694Y-73.406
X91.694Y-101.346
X94.234Y-73.406
X94.234Y-101.346
X96.774Y-73.406
X96.774Y-101.346
X99.314Y-73.406
X99.314Y-101.346
X101.854Y-73.406
X101.854Y-101.346
X104.394Y-73.406
X104.394Y-101.346
X106.934Y-73.406
X106.934Y-101.346
X109.474Y-73.406
X109.474Y-101.346
X112.014Y-73.406
X112.014Y-101.346
X114.554Y-73.406
X114.554Y-101.346
X117.094Y-73.406
X117.094Y-101.346
X119.634Y-73.406
X119.634Y-101.346
T3
X73.152Y-69.088
X73.152Y-83.588
X75.652Y-69.088
X78.152Y-69.088
X78.152Y-83.588
X90.424Y-87.63
X90.424Y-90.17
X90.424Y-92.71
X90.424Y-95.25
X103.886Y-64.262
X106.426Y-64.262
X108.966Y-64.262
X111.506Y-64.262
X129.794Y-56.388
X137.394Y-56.388
T4
X91.321Y-55.78
X91.321Y-62.23
X123.821Y-55.78
X123.821Y-62.28
T5
X52.828Y-55.118
X56.328Y-55.118
X59.828Y-55.118
X63.328Y-55.118
X66.828Y-55.118
X70.328Y-55.118
X73.828Y-55.118
X77.328Y-55.118
X80.828Y-55.118
X84.328Y-55.118
X133.35Y-97.536
X136.85Y-97.536
T6
X70.052Y-75.938G85X70.052Y-77.238
G05
X81.252Y-75.938G85X81.252Y-77.238
G05
T0
M30
