M48
INCH,TZ
T1C0.0138
T2C0.0300
T3C0.0394
T4C0.0492
T5C0.0512
T6C0.0591
%
G90
G05
T1
X20050Y-35150
X20050Y-35650
X20150Y-33700
X21000Y-32038
X21200Y-35800
X21250Y-40100
X22350Y-34800
X22400Y-28350
X22500Y-35250
X22500Y-38750
X22700Y-31300
X22724Y-28187
X22850Y-40200
X22900Y-35250
X23200Y-28200
X23300Y-38700
X23336Y-36486
X23350Y-40193
X23400Y-31400
X23650Y-31700
X23700Y-37400
X23750Y-33950
X24012Y-34800
X24100Y-37100
X24850Y-38000
X24850Y-40007
X25150Y-28200
X25250Y-35800
X26415Y-28215
X26650Y-31700
X26700Y-33900
X27000Y-34850
X27950Y-33300
X28150Y-35800
X28382Y-37682
X28400Y-38750
X28750Y-38450
X28800Y-31400
X29050Y-38150
X29550Y-33050
X29600Y-34800
X29750Y-37700
X29992Y-37992
X30750Y-31100
X31450Y-27200
X32550Y-29000
X32650Y-36950
X32650Y-37700
X32700Y-24500
X32834Y-34700
X33100Y-33100
X33100Y-36150
X33400Y-33950
X33650Y-27250
X33650Y-28250
X33850Y-31700
X33850Y-36950
X36400Y-31100
X37000Y-33100
X39650Y-31400
X40690Y-32360
X41150Y-29650
X41150Y-30150
X41200Y-30700
X42150Y-33100
X45250Y-32350
X48450Y-29250
X48450Y-36734
X48700Y-37000
X48850Y-38400
X49500Y-37700
X49650Y-27850
X50650Y-32400
X50750Y-33800
X51551Y-26250
X52300Y-34200
X53150Y-35391
X54000Y-33500
T2
X33100Y-28900
X33100Y-39900
X34100Y-28900
X34100Y-39900
X35100Y-28900
X35100Y-39900
X36100Y-28900
X36100Y-39900
X37100Y-28900
X37100Y-39900
X38100Y-28900
X38100Y-39900
X39100Y-28900
X39100Y-39900
X40100Y-28900
X40100Y-39900
X41100Y-28900
X41100Y-39900
X42100Y-28900
X42100Y-39900
X43100Y-28900
X43100Y-39900
X44100Y-28900
X44100Y-39900
X45100Y-28900
X45100Y-39900
X46100Y-28900
X46100Y-39900
X47100Y-28900
X47100Y-39900
T3
X28300Y-39800
X28800Y-27200
X28800Y-32909
X29300Y-39800
X29784Y-27200
X30300Y-39800
X30769Y-27200
X30769Y-32909
X31300Y-39800
X40900Y-25300
X41900Y-25300
X42900Y-25300
X43900Y-25300
X51100Y-22200
X54092Y-22200
T4
X35953Y-21960
X35953Y-24500
X48748Y-21960
X48748Y-24520
T5
X20798Y-21700
X22176Y-21700
X23554Y-21700
X24932Y-21700
X26310Y-21700
X27688Y-21700
X29066Y-21700
X30444Y-21700
X31822Y-21700
X33200Y-21700
X52500Y-38400
X53878Y-38400
T6
G00X27580Y-29897
M15
G01X27580Y-30409
M16
G05
G00X31989Y-29897
M15
G01X31989Y-30409
M16
G05
T0
M30
