%FSLAX45Y45*%
G04 Gerber Fmt 4.5, Leading zero omitted, Abs format (unit mm)*
G04 Created by KiCad (PCBNEW 5.1.12-84ad8e8a86~92~ubuntu20.04.1) date 2022-01-09 20:19:19*
%MOMM*%
%LPD*%
G01*
G04 APERTURE LIST*
%TA.AperFunction,Profile*%
%ADD10C,0.050000*%
%TD*%
%ADD11C,0.200000*%
%ADD12C,0.300000*%
G04 APERTURE END LIST*
D10*
X5000000Y-10300000D02*
X5000000Y-5000000D01*
X14000000Y-10300000D02*
X5000000Y-10300000D01*
X14000000Y-5000000D02*
X14000000Y-10300000D01*
X5000000Y-5000000D02*
X14000000Y-5000000D01*
D11*
X5075200Y-8910600D02*
X5110200Y-8945600D01*
X5110200Y-8910600D02*
X5075200Y-8945600D01*
X5075200Y-9037600D02*
X5110200Y-9072600D01*
X5110200Y-9037600D02*
X5075200Y-9072600D01*
X5100600Y-8542300D02*
X5135600Y-8577300D01*
X5135600Y-8542300D02*
X5100600Y-8577300D01*
X5316500Y-8120200D02*
X5351500Y-8155200D01*
X5351500Y-8120200D02*
X5316500Y-8155200D01*
X5367300Y-9075700D02*
X5402300Y-9110700D01*
X5402300Y-9075700D02*
X5367300Y-9110700D01*
X5380000Y-10167900D02*
X5415000Y-10202900D01*
X5415000Y-10167900D02*
X5380000Y-10202900D01*
X5659400Y-8821700D02*
X5694400Y-8856700D01*
X5694400Y-8821700D02*
X5659400Y-8856700D01*
X5672100Y-7183400D02*
X5707100Y-7218400D01*
X5707100Y-7183400D02*
X5672100Y-7218400D01*
X5697500Y-8936000D02*
X5732500Y-8971000D01*
X5732500Y-8936000D02*
X5697500Y-8971000D01*
X5697500Y-9825000D02*
X5732500Y-9860000D01*
X5732500Y-9825000D02*
X5697500Y-9860000D01*
X5748300Y-7932700D02*
X5783300Y-7967700D01*
X5783300Y-7932700D02*
X5748300Y-7967700D01*
X5754300Y-7141944D02*
X5789300Y-7176944D01*
X5789300Y-7141944D02*
X5754300Y-7176944D01*
X5799100Y-8936000D02*
X5834100Y-8971000D01*
X5834100Y-8936000D02*
X5799100Y-8971000D01*
X5849900Y-10167900D02*
X5884900Y-10202900D01*
X5884900Y-10167900D02*
X5849900Y-10202900D01*
X5875300Y-7145300D02*
X5910300Y-7180300D01*
X5910300Y-7145300D02*
X5875300Y-7180300D01*
X5900700Y-9812300D02*
X5935700Y-9847300D01*
X5935700Y-9812300D02*
X5900700Y-9847300D01*
X5909950Y-9250050D02*
X5944950Y-9285050D01*
X5944950Y-9250050D02*
X5909950Y-9285050D01*
X5926100Y-7958100D02*
X5961100Y-7993100D01*
X5961100Y-7958100D02*
X5926100Y-7993100D01*
X5976900Y-10166301D02*
X6011900Y-10201301D01*
X6011900Y-10166301D02*
X5976900Y-10201301D01*
X5989600Y-8034300D02*
X6024600Y-8069300D01*
X6024600Y-8034300D02*
X5989600Y-8069300D01*
X6002300Y-9482100D02*
X6037300Y-9517100D01*
X6037300Y-9482100D02*
X6002300Y-9517100D01*
X6015000Y-8605800D02*
X6050000Y-8640800D01*
X6050000Y-8605800D02*
X6015000Y-8640800D01*
X6078500Y-9786900D02*
X6113500Y-9821900D01*
X6113500Y-9786900D02*
X6078500Y-9821900D01*
X6081600Y-8821700D02*
X6116600Y-8856700D01*
X6116600Y-8821700D02*
X6081600Y-8856700D01*
X6103900Y-9405900D02*
X6138900Y-9440900D01*
X6138900Y-9405900D02*
X6103900Y-9440900D01*
X6294400Y-9634500D02*
X6329400Y-9669500D01*
X6329400Y-9634500D02*
X6294400Y-9669500D01*
X6294400Y-10144200D02*
X6329400Y-10179200D01*
X6329400Y-10144200D02*
X6294400Y-10179200D01*
X6370600Y-7145300D02*
X6405600Y-7180300D01*
X6405600Y-7145300D02*
X6370600Y-7180300D01*
X6396000Y-9075700D02*
X6431000Y-9110700D01*
X6431000Y-9075700D02*
X6396000Y-9110700D01*
X6691820Y-7149020D02*
X6726820Y-7184020D01*
X6726820Y-7149020D02*
X6691820Y-7184020D01*
X6751600Y-8034300D02*
X6786600Y-8069300D01*
X6786600Y-8034300D02*
X6751600Y-8069300D01*
X6764300Y-8593100D02*
X6799300Y-8628100D01*
X6799300Y-8593100D02*
X6764300Y-8628100D01*
X6815100Y-9939300D02*
X6850100Y-9974300D01*
X6850100Y-9939300D02*
X6815100Y-9974300D01*
X6840500Y-8834400D02*
X6875500Y-8869400D01*
X6875500Y-8834400D02*
X6840500Y-8869400D01*
X7043700Y-9964700D02*
X7078700Y-9999700D01*
X7078700Y-9964700D02*
X7043700Y-9999700D01*
X7043700Y-10066300D02*
X7078700Y-10101300D01*
X7078700Y-10066300D02*
X7043700Y-10101300D01*
X7081800Y-8440700D02*
X7116800Y-8475700D01*
X7116800Y-8440700D02*
X7081800Y-8475700D01*
X7132600Y-9075700D02*
X7167600Y-9110700D01*
X7167600Y-9075700D02*
X7132600Y-9110700D01*
X7191420Y-9553620D02*
X7226420Y-9588620D01*
X7226420Y-9553620D02*
X7191420Y-9588620D01*
X7196100Y-9825000D02*
X7231100Y-9860000D01*
X7231100Y-9825000D02*
X7196100Y-9860000D01*
X7285000Y-9748800D02*
X7320000Y-9783800D01*
X7320000Y-9748800D02*
X7285000Y-9783800D01*
X7297700Y-7958100D02*
X7332700Y-7993100D01*
X7332700Y-7958100D02*
X7297700Y-7993100D01*
X7488200Y-8377200D02*
X7523200Y-8412200D01*
X7523200Y-8377200D02*
X7488200Y-8412200D01*
X7500900Y-8821700D02*
X7535900Y-8856700D01*
X7535900Y-8821700D02*
X7500900Y-8856700D01*
X7539000Y-9558300D02*
X7574000Y-9593300D01*
X7574000Y-9558300D02*
X7539000Y-9593300D01*
X7600577Y-9632578D02*
X7635577Y-9667578D01*
X7635577Y-9632578D02*
X7600577Y-9667578D01*
X7793000Y-7881900D02*
X7828000Y-7916900D01*
X7828000Y-7881900D02*
X7793000Y-7916900D01*
X7970800Y-6891300D02*
X8005800Y-6926300D01*
X8005800Y-6891300D02*
X7970800Y-6926300D01*
X8250200Y-7348500D02*
X8285200Y-7383500D01*
X8285200Y-7348500D02*
X8250200Y-7383500D01*
X8275600Y-9367800D02*
X8310600Y-9402800D01*
X8310600Y-9367800D02*
X8275600Y-9402800D01*
X8275600Y-9558300D02*
X8310600Y-9593300D01*
X8310600Y-9558300D02*
X8275600Y-9593300D01*
X8288300Y-6205500D02*
X8323300Y-6240500D01*
X8323300Y-6205500D02*
X8288300Y-6240500D01*
X8322400Y-8796300D02*
X8357400Y-8831300D01*
X8357400Y-8796300D02*
X8322400Y-8831300D01*
X8389900Y-8389900D02*
X8424900Y-8424900D01*
X8424900Y-8389900D02*
X8389900Y-8424900D01*
X8389900Y-9164600D02*
X8424900Y-9199600D01*
X8424900Y-9164600D02*
X8389900Y-9199600D01*
X8466100Y-8605800D02*
X8501100Y-8640800D01*
X8501100Y-8605800D02*
X8466100Y-8640800D01*
X8488500Y-9885500D02*
X8523500Y-9920500D01*
X8523500Y-9885500D02*
X8488500Y-9920500D01*
X8491500Y-9253500D02*
X8526500Y-9288500D01*
X8526500Y-9253500D02*
X8491500Y-9288500D01*
X8529600Y-6904000D02*
X8564600Y-6939000D01*
X8564600Y-6904000D02*
X8529600Y-6939000D01*
X8529600Y-7158000D02*
X8564600Y-7193000D01*
X8564600Y-7158000D02*
X8529600Y-7193000D01*
X8580400Y-8034300D02*
X8615400Y-8069300D01*
X8615400Y-8034300D02*
X8580400Y-8069300D01*
X8580400Y-9367800D02*
X8615400Y-9402800D01*
X8615400Y-9367800D02*
X8580400Y-9402800D01*
X9228100Y-7881900D02*
X9263100Y-7916900D01*
X9263100Y-7881900D02*
X9228100Y-7916900D01*
X9380500Y-8389900D02*
X9415500Y-8424900D01*
X9415500Y-8389900D02*
X9380500Y-8424900D01*
X10053600Y-7958100D02*
X10088600Y-7993100D01*
X10088600Y-7958100D02*
X10053600Y-7993100D01*
X10317700Y-8202000D02*
X10352700Y-8237000D01*
X10352700Y-8202000D02*
X10317700Y-8237000D01*
X10434600Y-7513600D02*
X10469600Y-7548600D01*
X10469600Y-7513600D02*
X10434600Y-7548600D01*
X10434600Y-7640600D02*
X10469600Y-7675600D01*
X10469600Y-7640600D02*
X10434600Y-7675600D01*
X10447300Y-7780300D02*
X10482300Y-7815300D01*
X10482300Y-7780300D02*
X10447300Y-7815300D01*
X10688600Y-8389900D02*
X10723600Y-8424900D01*
X10723600Y-8389900D02*
X10688600Y-8424900D01*
X11476000Y-8199400D02*
X11511000Y-8234400D01*
X11511000Y-8199400D02*
X11476000Y-8234400D01*
X12288800Y-7412000D02*
X12323800Y-7447000D01*
X12323800Y-7412000D02*
X12288800Y-7447000D01*
X12288800Y-9313000D02*
X12323800Y-9348000D01*
X12323800Y-9313000D02*
X12288800Y-9348000D01*
X12352300Y-9380500D02*
X12387300Y-9415500D01*
X12387300Y-9380500D02*
X12352300Y-9415500D01*
X12390400Y-9736100D02*
X12425400Y-9771100D01*
X12425400Y-9736100D02*
X12390400Y-9771100D01*
X12555500Y-9558300D02*
X12590500Y-9593300D01*
X12590500Y-9558300D02*
X12555500Y-9593300D01*
X12593600Y-7056400D02*
X12628600Y-7091400D01*
X12628600Y-7056400D02*
X12593600Y-7091400D01*
X12847600Y-8212100D02*
X12882600Y-8247100D01*
X12882600Y-8212100D02*
X12847600Y-8247100D01*
X12873000Y-8567700D02*
X12908000Y-8602700D01*
X12908000Y-8567700D02*
X12873000Y-8602700D01*
X13076400Y-6650000D02*
X13111400Y-6685000D01*
X13111400Y-6650000D02*
X13076400Y-6685000D01*
X13266700Y-8669300D02*
X13301700Y-8704300D01*
X13301700Y-8669300D02*
X13266700Y-8704300D01*
X13482600Y-8971700D02*
X13517600Y-9006700D01*
X13517600Y-8971700D02*
X13482600Y-9006700D01*
X13698500Y-8491500D02*
X13733500Y-8526500D01*
X13733500Y-8491500D02*
X13698500Y-8526500D01*
X8445500Y-7340600D02*
G75*
G03*
X8445500Y-7340600I-38100J0D01*
G01*
X8445500Y-10134600D02*
G75*
G03*
X8445500Y-10134600I-38100J0D01*
G01*
X8699500Y-7340600D02*
G75*
G03*
X8699500Y-7340600I-38100J0D01*
G01*
X8699500Y-10134600D02*
G75*
G03*
X8699500Y-10134600I-38100J0D01*
G01*
X8953500Y-7340600D02*
G75*
G03*
X8953500Y-7340600I-38100J0D01*
G01*
X8953500Y-10134600D02*
G75*
G03*
X8953500Y-10134600I-38100J0D01*
G01*
X9207500Y-7340600D02*
G75*
G03*
X9207500Y-7340600I-38100J0D01*
G01*
X9207500Y-10134600D02*
G75*
G03*
X9207500Y-10134600I-38100J0D01*
G01*
X9461500Y-7340600D02*
G75*
G03*
X9461500Y-7340600I-38100J0D01*
G01*
X9461500Y-10134600D02*
G75*
G03*
X9461500Y-10134600I-38100J0D01*
G01*
X9715500Y-7340600D02*
G75*
G03*
X9715500Y-7340600I-38100J0D01*
G01*
X9715500Y-10134600D02*
G75*
G03*
X9715500Y-10134600I-38100J0D01*
G01*
X9969500Y-7340600D02*
G75*
G03*
X9969500Y-7340600I-38100J0D01*
G01*
X9969500Y-10134600D02*
G75*
G03*
X9969500Y-10134600I-38100J0D01*
G01*
X10223500Y-7340600D02*
G75*
G03*
X10223500Y-7340600I-38100J0D01*
G01*
X10223500Y-10134600D02*
G75*
G03*
X10223500Y-10134600I-38100J0D01*
G01*
X10477500Y-7340600D02*
G75*
G03*
X10477500Y-7340600I-38100J0D01*
G01*
X10477500Y-10134600D02*
G75*
G03*
X10477500Y-10134600I-38100J0D01*
G01*
X10731500Y-7340600D02*
G75*
G03*
X10731500Y-7340600I-38100J0D01*
G01*
X10731500Y-10134600D02*
G75*
G03*
X10731500Y-10134600I-38100J0D01*
G01*
X10985500Y-7340600D02*
G75*
G03*
X10985500Y-7340600I-38100J0D01*
G01*
X10985500Y-10134600D02*
G75*
G03*
X10985500Y-10134600I-38100J0D01*
G01*
X11239500Y-7340600D02*
G75*
G03*
X11239500Y-7340600I-38100J0D01*
G01*
X11239500Y-10134600D02*
G75*
G03*
X11239500Y-10134600I-38100J0D01*
G01*
X11493500Y-7340600D02*
G75*
G03*
X11493500Y-7340600I-38100J0D01*
G01*
X11493500Y-10134600D02*
G75*
G03*
X11493500Y-10134600I-38100J0D01*
G01*
X11747500Y-7340600D02*
G75*
G03*
X11747500Y-7340600I-38100J0D01*
G01*
X11747500Y-10134600D02*
G75*
G03*
X11747500Y-10134600I-38100J0D01*
G01*
X12001500Y-7340600D02*
G75*
G03*
X12001500Y-7340600I-38100J0D01*
G01*
X12001500Y-10134600D02*
G75*
G03*
X12001500Y-10134600I-38100J0D01*
G01*
X7213600Y-10033800D02*
X7213600Y-10133800D01*
X7163600Y-10083800D02*
X7263600Y-10083800D01*
X7315200Y-6858800D02*
X7315200Y-6958800D01*
X7265200Y-6908800D02*
X7365200Y-6908800D01*
X7315200Y-8308800D02*
X7315200Y-8408800D01*
X7265200Y-8358800D02*
X7365200Y-8358800D01*
X7467600Y-10033800D02*
X7467600Y-10133800D01*
X7417600Y-10083800D02*
X7517600Y-10083800D01*
X7565200Y-6858800D02*
X7565200Y-6958800D01*
X7515200Y-6908800D02*
X7615200Y-6908800D01*
X7721600Y-10033800D02*
X7721600Y-10133800D01*
X7671600Y-10083800D02*
X7771600Y-10083800D01*
X7815200Y-6858800D02*
X7815200Y-6958800D01*
X7765200Y-6908800D02*
X7865200Y-6908800D01*
X7815200Y-8308800D02*
X7815200Y-8408800D01*
X7765200Y-8358800D02*
X7865200Y-8358800D01*
X7975600Y-10033800D02*
X7975600Y-10133800D01*
X7925600Y-10083800D02*
X8025600Y-10083800D01*
X10388600Y-6376200D02*
X10388600Y-6476200D01*
X10338600Y-6426200D02*
X10438600Y-6426200D01*
X10642600Y-6376200D02*
X10642600Y-6476200D01*
X10592600Y-6426200D02*
X10692600Y-6426200D01*
X10896600Y-6376200D02*
X10896600Y-6476200D01*
X10846600Y-6426200D02*
X10946600Y-6426200D01*
X11150600Y-6376200D02*
X11150600Y-6476200D01*
X11100600Y-6426200D02*
X11200600Y-6426200D01*
X12979400Y-5588800D02*
X12979400Y-5688800D01*
X12929400Y-5638800D02*
X13029400Y-5638800D01*
X13739400Y-5588800D02*
X13739400Y-5688800D01*
X13689400Y-5638800D02*
X13789400Y-5638800D01*
X9176305Y-5622155D02*
X9176305Y-5533765D01*
X9087915Y-5533765D01*
X9087915Y-5622155D01*
X9176305Y-5622155D01*
X9176305Y-6267155D02*
X9176305Y-6178765D01*
X9087915Y-6178765D01*
X9087915Y-6267155D01*
X9176305Y-6267155D01*
X12426305Y-5622155D02*
X12426305Y-5533765D01*
X12337915Y-5533765D01*
X12337915Y-5622155D01*
X12426305Y-5622155D01*
X12426305Y-6272155D02*
X12426305Y-6183765D01*
X12337915Y-6183765D01*
X12337915Y-6272155D01*
X12426305Y-6272155D01*
X5282800Y-5576800D02*
X5347800Y-5511800D01*
X5282800Y-5446800D01*
X5217800Y-5511800D01*
X5282800Y-5576800D01*
X5632800Y-5576800D02*
X5697800Y-5511800D01*
X5632800Y-5446800D01*
X5567800Y-5511800D01*
X5632800Y-5576800D01*
X5982800Y-5576800D02*
X6047800Y-5511800D01*
X5982800Y-5446800D01*
X5917800Y-5511800D01*
X5982800Y-5576800D01*
X6332800Y-5576800D02*
X6397800Y-5511800D01*
X6332800Y-5446800D01*
X6267800Y-5511800D01*
X6332800Y-5576800D01*
X6682800Y-5576800D02*
X6747800Y-5511800D01*
X6682800Y-5446800D01*
X6617800Y-5511800D01*
X6682800Y-5576800D01*
X7032800Y-5576800D02*
X7097800Y-5511800D01*
X7032800Y-5446800D01*
X6967800Y-5511800D01*
X7032800Y-5576800D01*
X7382800Y-5576800D02*
X7447800Y-5511800D01*
X7382800Y-5446800D01*
X7317800Y-5511800D01*
X7382800Y-5576800D01*
X7732800Y-5576800D02*
X7797800Y-5511800D01*
X7732800Y-5446800D01*
X7667800Y-5511800D01*
X7732800Y-5576800D01*
X8082800Y-5576800D02*
X8147800Y-5511800D01*
X8082800Y-5446800D01*
X8017800Y-5511800D01*
X8082800Y-5576800D01*
X8432800Y-5576800D02*
X8497800Y-5511800D01*
X8432800Y-5446800D01*
X8367800Y-5511800D01*
X8432800Y-5576800D01*
X13335000Y-9818600D02*
X13400000Y-9753600D01*
X13335000Y-9688600D01*
X13270000Y-9753600D01*
X13335000Y-9818600D01*
X13685000Y-9818600D02*
X13750000Y-9753600D01*
X13685000Y-9688600D01*
X13620000Y-9753600D01*
X13685000Y-9818600D01*
X6930200Y-7583800D02*
X7080200Y-7733800D01*
X7080200Y-7583800D02*
X6930200Y-7733800D01*
X7080200Y-7658800D02*
G75*
G03*
X7080200Y-7658800I-75000J0D01*
G01*
X6940200Y-7593800D02*
X6940200Y-7723800D01*
X7070200Y-7593800D02*
X7070200Y-7723800D01*
X6940200Y-7723800D02*
G75*
G03*
X7070200Y-7723800I65000J0D01*
G01*
X7070200Y-7593800D02*
G75*
G03*
X6940200Y-7593800I-65000J0D01*
G01*
X8050200Y-7583800D02*
X8200200Y-7733800D01*
X8200200Y-7583800D02*
X8050200Y-7733800D01*
X8200200Y-7658800D02*
G75*
G03*
X8200200Y-7658800I-75000J0D01*
G01*
X8060200Y-7593800D02*
X8060200Y-7723800D01*
X8190200Y-7593800D02*
X8190200Y-7723800D01*
X8060200Y-7723800D02*
G75*
G03*
X8190200Y-7723800I65000J0D01*
G01*
X8190200Y-7593800D02*
G75*
G03*
X8060200Y-7593800I-65000J0D01*
G01*
D12*
X5283928Y-10768214D02*
X5283928Y-10468214D01*
X5355357Y-10468214D01*
X5398214Y-10482500D01*
X5426786Y-10511072D01*
X5441071Y-10539643D01*
X5455357Y-10596786D01*
X5455357Y-10639643D01*
X5441071Y-10696786D01*
X5426786Y-10725357D01*
X5398214Y-10753929D01*
X5355357Y-10768214D01*
X5283928Y-10768214D01*
X5583928Y-10768214D02*
X5583928Y-10568214D01*
X5583928Y-10625357D02*
X5598214Y-10596786D01*
X5612500Y-10582500D01*
X5641071Y-10568214D01*
X5669643Y-10568214D01*
X5769643Y-10768214D02*
X5769643Y-10568214D01*
X5769643Y-10468214D02*
X5755357Y-10482500D01*
X5769643Y-10496786D01*
X5783928Y-10482500D01*
X5769643Y-10468214D01*
X5769643Y-10496786D01*
X5955357Y-10768214D02*
X5926786Y-10753929D01*
X5912500Y-10725357D01*
X5912500Y-10468214D01*
X6112500Y-10768214D02*
X6083928Y-10753929D01*
X6069643Y-10725357D01*
X6069643Y-10468214D01*
X6455357Y-10768214D02*
X6455357Y-10468214D01*
X6555357Y-10682500D01*
X6655357Y-10468214D01*
X6655357Y-10768214D01*
X6926786Y-10768214D02*
X6926786Y-10611072D01*
X6912500Y-10582500D01*
X6883928Y-10568214D01*
X6826786Y-10568214D01*
X6798214Y-10582500D01*
X6926786Y-10753929D02*
X6898214Y-10768214D01*
X6826786Y-10768214D01*
X6798214Y-10753929D01*
X6783928Y-10725357D01*
X6783928Y-10696786D01*
X6798214Y-10668214D01*
X6826786Y-10653929D01*
X6898214Y-10653929D01*
X6926786Y-10639643D01*
X7069643Y-10568214D02*
X7069643Y-10868214D01*
X7069643Y-10582500D02*
X7098214Y-10568214D01*
X7155357Y-10568214D01*
X7183928Y-10582500D01*
X7198214Y-10596786D01*
X7212500Y-10625357D01*
X7212500Y-10711072D01*
X7198214Y-10739643D01*
X7183928Y-10753929D01*
X7155357Y-10768214D01*
X7098214Y-10768214D01*
X7069643Y-10753929D01*
X7341071Y-10739643D02*
X7355357Y-10753929D01*
X7341071Y-10768214D01*
X7326786Y-10753929D01*
X7341071Y-10739643D01*
X7341071Y-10768214D01*
X7341071Y-10582500D02*
X7355357Y-10596786D01*
X7341071Y-10611072D01*
X7326786Y-10596786D01*
X7341071Y-10582500D01*
X7341071Y-10611072D01*
X4962500Y-11245000D02*
X4997500Y-11280000D01*
X4997500Y-11245000D02*
X4962500Y-11280000D01*
X5341071Y-11098214D02*
X5369643Y-11098214D01*
X5398214Y-11112500D01*
X5412500Y-11126786D01*
X5426786Y-11155357D01*
X5441071Y-11212500D01*
X5441071Y-11283929D01*
X5426786Y-11341071D01*
X5412500Y-11369643D01*
X5398214Y-11383929D01*
X5369643Y-11398214D01*
X5341071Y-11398214D01*
X5312500Y-11383929D01*
X5298214Y-11369643D01*
X5283928Y-11341071D01*
X5269643Y-11283929D01*
X5269643Y-11212500D01*
X5283928Y-11155357D01*
X5298214Y-11126786D01*
X5312500Y-11112500D01*
X5341071Y-11098214D01*
X5569643Y-11369643D02*
X5583928Y-11383929D01*
X5569643Y-11398214D01*
X5555357Y-11383929D01*
X5569643Y-11369643D01*
X5569643Y-11398214D01*
X5683928Y-11098214D02*
X5869643Y-11098214D01*
X5769643Y-11212500D01*
X5812500Y-11212500D01*
X5841071Y-11226786D01*
X5855357Y-11241071D01*
X5869643Y-11269643D01*
X5869643Y-11341071D01*
X5855357Y-11369643D01*
X5841071Y-11383929D01*
X5812500Y-11398214D01*
X5726786Y-11398214D01*
X5698214Y-11383929D01*
X5683928Y-11369643D01*
X6141071Y-11098214D02*
X5998214Y-11098214D01*
X5983928Y-11241071D01*
X5998214Y-11226786D01*
X6026786Y-11212500D01*
X6098214Y-11212500D01*
X6126786Y-11226786D01*
X6141071Y-11241071D01*
X6155357Y-11269643D01*
X6155357Y-11341071D01*
X6141071Y-11369643D01*
X6126786Y-11383929D01*
X6098214Y-11398214D01*
X6026786Y-11398214D01*
X5998214Y-11383929D01*
X5983928Y-11369643D01*
X6341071Y-11098214D02*
X6369643Y-11098214D01*
X6398214Y-11112500D01*
X6412500Y-11126786D01*
X6426786Y-11155357D01*
X6441071Y-11212500D01*
X6441071Y-11283929D01*
X6426786Y-11341071D01*
X6412500Y-11369643D01*
X6398214Y-11383929D01*
X6369643Y-11398214D01*
X6341071Y-11398214D01*
X6312500Y-11383929D01*
X6298214Y-11369643D01*
X6283928Y-11341071D01*
X6269643Y-11283929D01*
X6269643Y-11212500D01*
X6283928Y-11155357D01*
X6298214Y-11126786D01*
X6312500Y-11112500D01*
X6341071Y-11098214D01*
X6569643Y-11398214D02*
X6569643Y-11198214D01*
X6569643Y-11226786D02*
X6583928Y-11212500D01*
X6612500Y-11198214D01*
X6655357Y-11198214D01*
X6683928Y-11212500D01*
X6698214Y-11241071D01*
X6698214Y-11398214D01*
X6698214Y-11241071D02*
X6712500Y-11212500D01*
X6741071Y-11198214D01*
X6783928Y-11198214D01*
X6812500Y-11212500D01*
X6826786Y-11241071D01*
X6826786Y-11398214D01*
X6969643Y-11398214D02*
X6969643Y-11198214D01*
X6969643Y-11226786D02*
X6983928Y-11212500D01*
X7012500Y-11198214D01*
X7055357Y-11198214D01*
X7083928Y-11212500D01*
X7098214Y-11241071D01*
X7098214Y-11398214D01*
X7098214Y-11241071D02*
X7112500Y-11212500D01*
X7141071Y-11198214D01*
X7183928Y-11198214D01*
X7212500Y-11212500D01*
X7226786Y-11241071D01*
X7226786Y-11398214D01*
X7812500Y-11083929D02*
X7555357Y-11469643D01*
X8198214Y-11098214D02*
X8226786Y-11098214D01*
X8255357Y-11112500D01*
X8269643Y-11126786D01*
X8283928Y-11155357D01*
X8298214Y-11212500D01*
X8298214Y-11283929D01*
X8283928Y-11341071D01*
X8269643Y-11369643D01*
X8255357Y-11383929D01*
X8226786Y-11398214D01*
X8198214Y-11398214D01*
X8169643Y-11383929D01*
X8155357Y-11369643D01*
X8141071Y-11341071D01*
X8126786Y-11283929D01*
X8126786Y-11212500D01*
X8141071Y-11155357D01*
X8155357Y-11126786D01*
X8169643Y-11112500D01*
X8198214Y-11098214D01*
X8426786Y-11369643D02*
X8441071Y-11383929D01*
X8426786Y-11398214D01*
X8412500Y-11383929D01*
X8426786Y-11369643D01*
X8426786Y-11398214D01*
X8626786Y-11098214D02*
X8655357Y-11098214D01*
X8683928Y-11112500D01*
X8698214Y-11126786D01*
X8712500Y-11155357D01*
X8726786Y-11212500D01*
X8726786Y-11283929D01*
X8712500Y-11341071D01*
X8698214Y-11369643D01*
X8683928Y-11383929D01*
X8655357Y-11398214D01*
X8626786Y-11398214D01*
X8598214Y-11383929D01*
X8583928Y-11369643D01*
X8569643Y-11341071D01*
X8555357Y-11283929D01*
X8555357Y-11212500D01*
X8569643Y-11155357D01*
X8583928Y-11126786D01*
X8598214Y-11112500D01*
X8626786Y-11098214D01*
X9012500Y-11398214D02*
X8841071Y-11398214D01*
X8926786Y-11398214D02*
X8926786Y-11098214D01*
X8898214Y-11141072D01*
X8869643Y-11169643D01*
X8841071Y-11183929D01*
X9112500Y-11098214D02*
X9298214Y-11098214D01*
X9198214Y-11212500D01*
X9241071Y-11212500D01*
X9269643Y-11226786D01*
X9283928Y-11241071D01*
X9298214Y-11269643D01*
X9298214Y-11341071D01*
X9283928Y-11369643D01*
X9269643Y-11383929D01*
X9241071Y-11398214D01*
X9155357Y-11398214D01*
X9126786Y-11383929D01*
X9112500Y-11369643D01*
X9469643Y-11226786D02*
X9441071Y-11212500D01*
X9426786Y-11198214D01*
X9412500Y-11169643D01*
X9412500Y-11155357D01*
X9426786Y-11126786D01*
X9441071Y-11112500D01*
X9469643Y-11098214D01*
X9526786Y-11098214D01*
X9555357Y-11112500D01*
X9569643Y-11126786D01*
X9583928Y-11155357D01*
X9583928Y-11169643D01*
X9569643Y-11198214D01*
X9555357Y-11212500D01*
X9526786Y-11226786D01*
X9469643Y-11226786D01*
X9441071Y-11241071D01*
X9426786Y-11255357D01*
X9412500Y-11283929D01*
X9412500Y-11341071D01*
X9426786Y-11369643D01*
X9441071Y-11383929D01*
X9469643Y-11398214D01*
X9526786Y-11398214D01*
X9555357Y-11383929D01*
X9569643Y-11369643D01*
X9583928Y-11341071D01*
X9583928Y-11283929D01*
X9569643Y-11255357D01*
X9555357Y-11241071D01*
X9526786Y-11226786D01*
X9698214Y-11098214D02*
X9698214Y-11155357D01*
X9812500Y-11098214D02*
X9812500Y-11155357D01*
X10255357Y-11512500D02*
X10241071Y-11498214D01*
X10212500Y-11455357D01*
X10198214Y-11426786D01*
X10183928Y-11383929D01*
X10169643Y-11312500D01*
X10169643Y-11255357D01*
X10183928Y-11183929D01*
X10198214Y-11141072D01*
X10212500Y-11112500D01*
X10241071Y-11069643D01*
X10255357Y-11055357D01*
X10412500Y-11226786D02*
X10383928Y-11212500D01*
X10369643Y-11198214D01*
X10355357Y-11169643D01*
X10355357Y-11155357D01*
X10369643Y-11126786D01*
X10383928Y-11112500D01*
X10412500Y-11098214D01*
X10469643Y-11098214D01*
X10498214Y-11112500D01*
X10512500Y-11126786D01*
X10526786Y-11155357D01*
X10526786Y-11169643D01*
X10512500Y-11198214D01*
X10498214Y-11212500D01*
X10469643Y-11226786D01*
X10412500Y-11226786D01*
X10383928Y-11241071D01*
X10369643Y-11255357D01*
X10355357Y-11283929D01*
X10355357Y-11341071D01*
X10369643Y-11369643D01*
X10383928Y-11383929D01*
X10412500Y-11398214D01*
X10469643Y-11398214D01*
X10498214Y-11383929D01*
X10512500Y-11369643D01*
X10526786Y-11341071D01*
X10526786Y-11283929D01*
X10512500Y-11255357D01*
X10498214Y-11241071D01*
X10469643Y-11226786D01*
X10626786Y-11098214D02*
X10812500Y-11098214D01*
X10712500Y-11212500D01*
X10755357Y-11212500D01*
X10783928Y-11226786D01*
X10798214Y-11241071D01*
X10812500Y-11269643D01*
X10812500Y-11341071D01*
X10798214Y-11369643D01*
X10783928Y-11383929D01*
X10755357Y-11398214D01*
X10669643Y-11398214D01*
X10641071Y-11383929D01*
X10626786Y-11369643D01*
X11169643Y-11398214D02*
X11169643Y-11098214D01*
X11298214Y-11398214D02*
X11298214Y-11241071D01*
X11283928Y-11212500D01*
X11255357Y-11198214D01*
X11212500Y-11198214D01*
X11183928Y-11212500D01*
X11169643Y-11226786D01*
X11483928Y-11398214D02*
X11455357Y-11383929D01*
X11441071Y-11369643D01*
X11426786Y-11341071D01*
X11426786Y-11255357D01*
X11441071Y-11226786D01*
X11455357Y-11212500D01*
X11483928Y-11198214D01*
X11526786Y-11198214D01*
X11555357Y-11212500D01*
X11569643Y-11226786D01*
X11583928Y-11255357D01*
X11583928Y-11341071D01*
X11569643Y-11369643D01*
X11555357Y-11383929D01*
X11526786Y-11398214D01*
X11483928Y-11398214D01*
X11755357Y-11398214D02*
X11726786Y-11383929D01*
X11712500Y-11355357D01*
X11712500Y-11098214D01*
X11983928Y-11383929D02*
X11955357Y-11398214D01*
X11898214Y-11398214D01*
X11869643Y-11383929D01*
X11855357Y-11355357D01*
X11855357Y-11241071D01*
X11869643Y-11212500D01*
X11898214Y-11198214D01*
X11955357Y-11198214D01*
X11983928Y-11212500D01*
X11998214Y-11241071D01*
X11998214Y-11269643D01*
X11855357Y-11298214D01*
X12112500Y-11383929D02*
X12141071Y-11398214D01*
X12198214Y-11398214D01*
X12226786Y-11383929D01*
X12241071Y-11355357D01*
X12241071Y-11341071D01*
X12226786Y-11312500D01*
X12198214Y-11298214D01*
X12155357Y-11298214D01*
X12126786Y-11283929D01*
X12112500Y-11255357D01*
X12112500Y-11241071D01*
X12126786Y-11212500D01*
X12155357Y-11198214D01*
X12198214Y-11198214D01*
X12226786Y-11212500D01*
X12341071Y-11512500D02*
X12355357Y-11498214D01*
X12383928Y-11455357D01*
X12398214Y-11426786D01*
X12412500Y-11383929D01*
X12426786Y-11312500D01*
X12426786Y-11255357D01*
X12412500Y-11183929D01*
X12398214Y-11141072D01*
X12383928Y-11112500D01*
X12355357Y-11069643D01*
X12341071Y-11055357D01*
X4997500Y-11658500D02*
G75*
G03*
X4997500Y-11658500I-38100J0D01*
G01*
X5341071Y-11494214D02*
X5369643Y-11494214D01*
X5398214Y-11508500D01*
X5412500Y-11522786D01*
X5426786Y-11551357D01*
X5441071Y-11608500D01*
X5441071Y-11679929D01*
X5426786Y-11737071D01*
X5412500Y-11765643D01*
X5398214Y-11779929D01*
X5369643Y-11794214D01*
X5341071Y-11794214D01*
X5312500Y-11779929D01*
X5298214Y-11765643D01*
X5283928Y-11737071D01*
X5269643Y-11679929D01*
X5269643Y-11608500D01*
X5283928Y-11551357D01*
X5298214Y-11522786D01*
X5312500Y-11508500D01*
X5341071Y-11494214D01*
X5569643Y-11765643D02*
X5583928Y-11779929D01*
X5569643Y-11794214D01*
X5555357Y-11779929D01*
X5569643Y-11765643D01*
X5569643Y-11794214D01*
X5683928Y-11494214D02*
X5883928Y-11494214D01*
X5755357Y-11794214D01*
X6126786Y-11494214D02*
X6069643Y-11494214D01*
X6041071Y-11508500D01*
X6026786Y-11522786D01*
X5998214Y-11565643D01*
X5983928Y-11622786D01*
X5983928Y-11737071D01*
X5998214Y-11765643D01*
X6012500Y-11779929D01*
X6041071Y-11794214D01*
X6098214Y-11794214D01*
X6126786Y-11779929D01*
X6141071Y-11765643D01*
X6155357Y-11737071D01*
X6155357Y-11665643D01*
X6141071Y-11637071D01*
X6126786Y-11622786D01*
X6098214Y-11608500D01*
X6041071Y-11608500D01*
X6012500Y-11622786D01*
X5998214Y-11637071D01*
X5983928Y-11665643D01*
X6269643Y-11522786D02*
X6283928Y-11508500D01*
X6312500Y-11494214D01*
X6383928Y-11494214D01*
X6412500Y-11508500D01*
X6426786Y-11522786D01*
X6441071Y-11551357D01*
X6441071Y-11579929D01*
X6426786Y-11622786D01*
X6255357Y-11794214D01*
X6441071Y-11794214D01*
X6569643Y-11794214D02*
X6569643Y-11594214D01*
X6569643Y-11622786D02*
X6583928Y-11608500D01*
X6612500Y-11594214D01*
X6655357Y-11594214D01*
X6683928Y-11608500D01*
X6698214Y-11637071D01*
X6698214Y-11794214D01*
X6698214Y-11637071D02*
X6712500Y-11608500D01*
X6741071Y-11594214D01*
X6783928Y-11594214D01*
X6812500Y-11608500D01*
X6826786Y-11637071D01*
X6826786Y-11794214D01*
X6969643Y-11794214D02*
X6969643Y-11594214D01*
X6969643Y-11622786D02*
X6983928Y-11608500D01*
X7012500Y-11594214D01*
X7055357Y-11594214D01*
X7083928Y-11608500D01*
X7098214Y-11637071D01*
X7098214Y-11794214D01*
X7098214Y-11637071D02*
X7112500Y-11608500D01*
X7141071Y-11594214D01*
X7183928Y-11594214D01*
X7212500Y-11608500D01*
X7226786Y-11637071D01*
X7226786Y-11794214D01*
X7812500Y-11479929D02*
X7555357Y-11865643D01*
X8198214Y-11494214D02*
X8226786Y-11494214D01*
X8255357Y-11508500D01*
X8269643Y-11522786D01*
X8283928Y-11551357D01*
X8298214Y-11608500D01*
X8298214Y-11679929D01*
X8283928Y-11737071D01*
X8269643Y-11765643D01*
X8255357Y-11779929D01*
X8226786Y-11794214D01*
X8198214Y-11794214D01*
X8169643Y-11779929D01*
X8155357Y-11765643D01*
X8141071Y-11737071D01*
X8126786Y-11679929D01*
X8126786Y-11608500D01*
X8141071Y-11551357D01*
X8155357Y-11522786D01*
X8169643Y-11508500D01*
X8198214Y-11494214D01*
X8426786Y-11765643D02*
X8441071Y-11779929D01*
X8426786Y-11794214D01*
X8412500Y-11779929D01*
X8426786Y-11765643D01*
X8426786Y-11794214D01*
X8626786Y-11494214D02*
X8655357Y-11494214D01*
X8683928Y-11508500D01*
X8698214Y-11522786D01*
X8712500Y-11551357D01*
X8726786Y-11608500D01*
X8726786Y-11679929D01*
X8712500Y-11737071D01*
X8698214Y-11765643D01*
X8683928Y-11779929D01*
X8655357Y-11794214D01*
X8626786Y-11794214D01*
X8598214Y-11779929D01*
X8583928Y-11765643D01*
X8569643Y-11737071D01*
X8555357Y-11679929D01*
X8555357Y-11608500D01*
X8569643Y-11551357D01*
X8583928Y-11522786D01*
X8598214Y-11508500D01*
X8626786Y-11494214D01*
X8826786Y-11494214D02*
X9012500Y-11494214D01*
X8912500Y-11608500D01*
X8955357Y-11608500D01*
X8983928Y-11622786D01*
X8998214Y-11637071D01*
X9012500Y-11665643D01*
X9012500Y-11737071D01*
X8998214Y-11765643D01*
X8983928Y-11779929D01*
X8955357Y-11794214D01*
X8869643Y-11794214D01*
X8841071Y-11779929D01*
X8826786Y-11765643D01*
X9198214Y-11494214D02*
X9226786Y-11494214D01*
X9255357Y-11508500D01*
X9269643Y-11522786D01*
X9283928Y-11551357D01*
X9298214Y-11608500D01*
X9298214Y-11679929D01*
X9283928Y-11737071D01*
X9269643Y-11765643D01*
X9255357Y-11779929D01*
X9226786Y-11794214D01*
X9198214Y-11794214D01*
X9169643Y-11779929D01*
X9155357Y-11765643D01*
X9141071Y-11737071D01*
X9126786Y-11679929D01*
X9126786Y-11608500D01*
X9141071Y-11551357D01*
X9155357Y-11522786D01*
X9169643Y-11508500D01*
X9198214Y-11494214D01*
X9483928Y-11494214D02*
X9512500Y-11494214D01*
X9541071Y-11508500D01*
X9555357Y-11522786D01*
X9569643Y-11551357D01*
X9583928Y-11608500D01*
X9583928Y-11679929D01*
X9569643Y-11737071D01*
X9555357Y-11765643D01*
X9541071Y-11779929D01*
X9512500Y-11794214D01*
X9483928Y-11794214D01*
X9455357Y-11779929D01*
X9441071Y-11765643D01*
X9426786Y-11737071D01*
X9412500Y-11679929D01*
X9412500Y-11608500D01*
X9426786Y-11551357D01*
X9441071Y-11522786D01*
X9455357Y-11508500D01*
X9483928Y-11494214D01*
X9698214Y-11494214D02*
X9698214Y-11551357D01*
X9812500Y-11494214D02*
X9812500Y-11551357D01*
X10255357Y-11908500D02*
X10241071Y-11894214D01*
X10212500Y-11851357D01*
X10198214Y-11822786D01*
X10183928Y-11779929D01*
X10169643Y-11708500D01*
X10169643Y-11651357D01*
X10183928Y-11579929D01*
X10198214Y-11537071D01*
X10212500Y-11508500D01*
X10241071Y-11465643D01*
X10255357Y-11451357D01*
X10341071Y-11494214D02*
X10526786Y-11494214D01*
X10426786Y-11608500D01*
X10469643Y-11608500D01*
X10498214Y-11622786D01*
X10512500Y-11637071D01*
X10526786Y-11665643D01*
X10526786Y-11737071D01*
X10512500Y-11765643D01*
X10498214Y-11779929D01*
X10469643Y-11794214D01*
X10383928Y-11794214D01*
X10355357Y-11779929D01*
X10341071Y-11765643D01*
X10712500Y-11494214D02*
X10741071Y-11494214D01*
X10769643Y-11508500D01*
X10783928Y-11522786D01*
X10798214Y-11551357D01*
X10812500Y-11608500D01*
X10812500Y-11679929D01*
X10798214Y-11737071D01*
X10783928Y-11765643D01*
X10769643Y-11779929D01*
X10741071Y-11794214D01*
X10712500Y-11794214D01*
X10683928Y-11779929D01*
X10669643Y-11765643D01*
X10655357Y-11737071D01*
X10641071Y-11679929D01*
X10641071Y-11608500D01*
X10655357Y-11551357D01*
X10669643Y-11522786D01*
X10683928Y-11508500D01*
X10712500Y-11494214D01*
X11169643Y-11794214D02*
X11169643Y-11494214D01*
X11298214Y-11794214D02*
X11298214Y-11637071D01*
X11283928Y-11608500D01*
X11255357Y-11594214D01*
X11212500Y-11594214D01*
X11183928Y-11608500D01*
X11169643Y-11622786D01*
X11483928Y-11794214D02*
X11455357Y-11779929D01*
X11441071Y-11765643D01*
X11426786Y-11737071D01*
X11426786Y-11651357D01*
X11441071Y-11622786D01*
X11455357Y-11608500D01*
X11483928Y-11594214D01*
X11526786Y-11594214D01*
X11555357Y-11608500D01*
X11569643Y-11622786D01*
X11583928Y-11651357D01*
X11583928Y-11737071D01*
X11569643Y-11765643D01*
X11555357Y-11779929D01*
X11526786Y-11794214D01*
X11483928Y-11794214D01*
X11755357Y-11794214D02*
X11726786Y-11779929D01*
X11712500Y-11751357D01*
X11712500Y-11494214D01*
X11983928Y-11779929D02*
X11955357Y-11794214D01*
X11898214Y-11794214D01*
X11869643Y-11779929D01*
X11855357Y-11751357D01*
X11855357Y-11637071D01*
X11869643Y-11608500D01*
X11898214Y-11594214D01*
X11955357Y-11594214D01*
X11983928Y-11608500D01*
X11998214Y-11637071D01*
X11998214Y-11665643D01*
X11855357Y-11694214D01*
X12112500Y-11779929D02*
X12141071Y-11794214D01*
X12198214Y-11794214D01*
X12226786Y-11779929D01*
X12241071Y-11751357D01*
X12241071Y-11737071D01*
X12226786Y-11708500D01*
X12198214Y-11694214D01*
X12155357Y-11694214D01*
X12126786Y-11679929D01*
X12112500Y-11651357D01*
X12112500Y-11637071D01*
X12126786Y-11608500D01*
X12155357Y-11594214D01*
X12198214Y-11594214D01*
X12226786Y-11608500D01*
X12341071Y-11908500D02*
X12355357Y-11894214D01*
X12383928Y-11851357D01*
X12398214Y-11822786D01*
X12412500Y-11779929D01*
X12426786Y-11708500D01*
X12426786Y-11651357D01*
X12412500Y-11579929D01*
X12398214Y-11537071D01*
X12383928Y-11508500D01*
X12355357Y-11465643D01*
X12341071Y-11451357D01*
X4947500Y-12004500D02*
X4947500Y-12104500D01*
X4897500Y-12054500D02*
X4997500Y-12054500D01*
X5441071Y-12190214D02*
X5269643Y-12190214D01*
X5355357Y-12190214D02*
X5355357Y-11890214D01*
X5326786Y-11933071D01*
X5298214Y-11961643D01*
X5269643Y-11975929D01*
X5569643Y-12161643D02*
X5583928Y-12175929D01*
X5569643Y-12190214D01*
X5555357Y-12175929D01*
X5569643Y-12161643D01*
X5569643Y-12190214D01*
X5769643Y-11890214D02*
X5798214Y-11890214D01*
X5826786Y-11904500D01*
X5841071Y-11918786D01*
X5855357Y-11947357D01*
X5869643Y-12004500D01*
X5869643Y-12075929D01*
X5855357Y-12133071D01*
X5841071Y-12161643D01*
X5826786Y-12175929D01*
X5798214Y-12190214D01*
X5769643Y-12190214D01*
X5741071Y-12175929D01*
X5726786Y-12161643D01*
X5712500Y-12133071D01*
X5698214Y-12075929D01*
X5698214Y-12004500D01*
X5712500Y-11947357D01*
X5726786Y-11918786D01*
X5741071Y-11904500D01*
X5769643Y-11890214D01*
X6055357Y-11890214D02*
X6083928Y-11890214D01*
X6112500Y-11904500D01*
X6126786Y-11918786D01*
X6141071Y-11947357D01*
X6155357Y-12004500D01*
X6155357Y-12075929D01*
X6141071Y-12133071D01*
X6126786Y-12161643D01*
X6112500Y-12175929D01*
X6083928Y-12190214D01*
X6055357Y-12190214D01*
X6026786Y-12175929D01*
X6012500Y-12161643D01*
X5998214Y-12133071D01*
X5983928Y-12075929D01*
X5983928Y-12004500D01*
X5998214Y-11947357D01*
X6012500Y-11918786D01*
X6026786Y-11904500D01*
X6055357Y-11890214D01*
X6341071Y-11890214D02*
X6369643Y-11890214D01*
X6398214Y-11904500D01*
X6412500Y-11918786D01*
X6426786Y-11947357D01*
X6441071Y-12004500D01*
X6441071Y-12075929D01*
X6426786Y-12133071D01*
X6412500Y-12161643D01*
X6398214Y-12175929D01*
X6369643Y-12190214D01*
X6341071Y-12190214D01*
X6312500Y-12175929D01*
X6298214Y-12161643D01*
X6283928Y-12133071D01*
X6269643Y-12075929D01*
X6269643Y-12004500D01*
X6283928Y-11947357D01*
X6298214Y-11918786D01*
X6312500Y-11904500D01*
X6341071Y-11890214D01*
X6569643Y-12190214D02*
X6569643Y-11990214D01*
X6569643Y-12018786D02*
X6583928Y-12004500D01*
X6612500Y-11990214D01*
X6655357Y-11990214D01*
X6683928Y-12004500D01*
X6698214Y-12033071D01*
X6698214Y-12190214D01*
X6698214Y-12033071D02*
X6712500Y-12004500D01*
X6741071Y-11990214D01*
X6783928Y-11990214D01*
X6812500Y-12004500D01*
X6826786Y-12033071D01*
X6826786Y-12190214D01*
X6969643Y-12190214D02*
X6969643Y-11990214D01*
X6969643Y-12018786D02*
X6983928Y-12004500D01*
X7012500Y-11990214D01*
X7055357Y-11990214D01*
X7083928Y-12004500D01*
X7098214Y-12033071D01*
X7098214Y-12190214D01*
X7098214Y-12033071D02*
X7112500Y-12004500D01*
X7141071Y-11990214D01*
X7183928Y-11990214D01*
X7212500Y-12004500D01*
X7226786Y-12033071D01*
X7226786Y-12190214D01*
X7812500Y-11875929D02*
X7555357Y-12261643D01*
X8198214Y-11890214D02*
X8226786Y-11890214D01*
X8255357Y-11904500D01*
X8269643Y-11918786D01*
X8283928Y-11947357D01*
X8298214Y-12004500D01*
X8298214Y-12075929D01*
X8283928Y-12133071D01*
X8269643Y-12161643D01*
X8255357Y-12175929D01*
X8226786Y-12190214D01*
X8198214Y-12190214D01*
X8169643Y-12175929D01*
X8155357Y-12161643D01*
X8141071Y-12133071D01*
X8126786Y-12075929D01*
X8126786Y-12004500D01*
X8141071Y-11947357D01*
X8155357Y-11918786D01*
X8169643Y-11904500D01*
X8198214Y-11890214D01*
X8426786Y-12161643D02*
X8441071Y-12175929D01*
X8426786Y-12190214D01*
X8412500Y-12175929D01*
X8426786Y-12161643D01*
X8426786Y-12190214D01*
X8626786Y-11890214D02*
X8655357Y-11890214D01*
X8683928Y-11904500D01*
X8698214Y-11918786D01*
X8712500Y-11947357D01*
X8726786Y-12004500D01*
X8726786Y-12075929D01*
X8712500Y-12133071D01*
X8698214Y-12161643D01*
X8683928Y-12175929D01*
X8655357Y-12190214D01*
X8626786Y-12190214D01*
X8598214Y-12175929D01*
X8583928Y-12161643D01*
X8569643Y-12133071D01*
X8555357Y-12075929D01*
X8555357Y-12004500D01*
X8569643Y-11947357D01*
X8583928Y-11918786D01*
X8598214Y-11904500D01*
X8626786Y-11890214D01*
X8826786Y-11890214D02*
X9012500Y-11890214D01*
X8912500Y-12004500D01*
X8955357Y-12004500D01*
X8983928Y-12018786D01*
X8998214Y-12033071D01*
X9012500Y-12061643D01*
X9012500Y-12133071D01*
X8998214Y-12161643D01*
X8983928Y-12175929D01*
X8955357Y-12190214D01*
X8869643Y-12190214D01*
X8841071Y-12175929D01*
X8826786Y-12161643D01*
X9155357Y-12190214D02*
X9212500Y-12190214D01*
X9241071Y-12175929D01*
X9255357Y-12161643D01*
X9283928Y-12118786D01*
X9298214Y-12061643D01*
X9298214Y-11947357D01*
X9283928Y-11918786D01*
X9269643Y-11904500D01*
X9241071Y-11890214D01*
X9183928Y-11890214D01*
X9155357Y-11904500D01*
X9141071Y-11918786D01*
X9126786Y-11947357D01*
X9126786Y-12018786D01*
X9141071Y-12047357D01*
X9155357Y-12061643D01*
X9183928Y-12075929D01*
X9241071Y-12075929D01*
X9269643Y-12061643D01*
X9283928Y-12047357D01*
X9298214Y-12018786D01*
X9555357Y-11990214D02*
X9555357Y-12190214D01*
X9483928Y-11875929D02*
X9412500Y-12090214D01*
X9598214Y-12090214D01*
X9698214Y-11890214D02*
X9698214Y-11947357D01*
X9812500Y-11890214D02*
X9812500Y-11947357D01*
X10255357Y-12304500D02*
X10241071Y-12290214D01*
X10212500Y-12247357D01*
X10198214Y-12218786D01*
X10183928Y-12175929D01*
X10169643Y-12104500D01*
X10169643Y-12047357D01*
X10183928Y-11975929D01*
X10198214Y-11933071D01*
X10212500Y-11904500D01*
X10241071Y-11861643D01*
X10255357Y-11847357D01*
X10526786Y-12190214D02*
X10355357Y-12190214D01*
X10441071Y-12190214D02*
X10441071Y-11890214D01*
X10412500Y-11933071D01*
X10383928Y-11961643D01*
X10355357Y-11975929D01*
X10798214Y-11890214D02*
X10655357Y-11890214D01*
X10641071Y-12033071D01*
X10655357Y-12018786D01*
X10683928Y-12004500D01*
X10755357Y-12004500D01*
X10783928Y-12018786D01*
X10798214Y-12033071D01*
X10812500Y-12061643D01*
X10812500Y-12133071D01*
X10798214Y-12161643D01*
X10783928Y-12175929D01*
X10755357Y-12190214D01*
X10683928Y-12190214D01*
X10655357Y-12175929D01*
X10641071Y-12161643D01*
X11169643Y-12190214D02*
X11169643Y-11890214D01*
X11298214Y-12190214D02*
X11298214Y-12033071D01*
X11283928Y-12004500D01*
X11255357Y-11990214D01*
X11212500Y-11990214D01*
X11183928Y-12004500D01*
X11169643Y-12018786D01*
X11483928Y-12190214D02*
X11455357Y-12175929D01*
X11441071Y-12161643D01*
X11426786Y-12133071D01*
X11426786Y-12047357D01*
X11441071Y-12018786D01*
X11455357Y-12004500D01*
X11483928Y-11990214D01*
X11526786Y-11990214D01*
X11555357Y-12004500D01*
X11569643Y-12018786D01*
X11583928Y-12047357D01*
X11583928Y-12133071D01*
X11569643Y-12161643D01*
X11555357Y-12175929D01*
X11526786Y-12190214D01*
X11483928Y-12190214D01*
X11755357Y-12190214D02*
X11726786Y-12175929D01*
X11712500Y-12147357D01*
X11712500Y-11890214D01*
X11983928Y-12175929D02*
X11955357Y-12190214D01*
X11898214Y-12190214D01*
X11869643Y-12175929D01*
X11855357Y-12147357D01*
X11855357Y-12033071D01*
X11869643Y-12004500D01*
X11898214Y-11990214D01*
X11955357Y-11990214D01*
X11983928Y-12004500D01*
X11998214Y-12033071D01*
X11998214Y-12061643D01*
X11855357Y-12090214D01*
X12112500Y-12175929D02*
X12141071Y-12190214D01*
X12198214Y-12190214D01*
X12226786Y-12175929D01*
X12241071Y-12147357D01*
X12241071Y-12133071D01*
X12226786Y-12104500D01*
X12198214Y-12090214D01*
X12155357Y-12090214D01*
X12126786Y-12075929D01*
X12112500Y-12047357D01*
X12112500Y-12033071D01*
X12126786Y-12004500D01*
X12155357Y-11990214D01*
X12198214Y-11990214D01*
X12226786Y-12004500D01*
X12341071Y-12304500D02*
X12355357Y-12290214D01*
X12383928Y-12247357D01*
X12398214Y-12218786D01*
X12412500Y-12175929D01*
X12426786Y-12104500D01*
X12426786Y-12047357D01*
X12412500Y-11975929D01*
X12398214Y-11933071D01*
X12383928Y-11904500D01*
X12355357Y-11861643D01*
X12341071Y-11847357D01*
X4979195Y-12494695D02*
X4979195Y-12406305D01*
X4890805Y-12406305D01*
X4890805Y-12494695D01*
X4979195Y-12494695D01*
X5441071Y-12586214D02*
X5269643Y-12586214D01*
X5355357Y-12586214D02*
X5355357Y-12286214D01*
X5326786Y-12329071D01*
X5298214Y-12357643D01*
X5269643Y-12371929D01*
X5569643Y-12557643D02*
X5583928Y-12571929D01*
X5569643Y-12586214D01*
X5555357Y-12571929D01*
X5569643Y-12557643D01*
X5569643Y-12586214D01*
X5698214Y-12314786D02*
X5712500Y-12300500D01*
X5741071Y-12286214D01*
X5812500Y-12286214D01*
X5841071Y-12300500D01*
X5855357Y-12314786D01*
X5869643Y-12343357D01*
X5869643Y-12371929D01*
X5855357Y-12414786D01*
X5683928Y-12586214D01*
X5869643Y-12586214D01*
X6141071Y-12286214D02*
X5998214Y-12286214D01*
X5983928Y-12429071D01*
X5998214Y-12414786D01*
X6026786Y-12400500D01*
X6098214Y-12400500D01*
X6126786Y-12414786D01*
X6141071Y-12429071D01*
X6155357Y-12457643D01*
X6155357Y-12529071D01*
X6141071Y-12557643D01*
X6126786Y-12571929D01*
X6098214Y-12586214D01*
X6026786Y-12586214D01*
X5998214Y-12571929D01*
X5983928Y-12557643D01*
X6341071Y-12286214D02*
X6369643Y-12286214D01*
X6398214Y-12300500D01*
X6412500Y-12314786D01*
X6426786Y-12343357D01*
X6441071Y-12400500D01*
X6441071Y-12471929D01*
X6426786Y-12529071D01*
X6412500Y-12557643D01*
X6398214Y-12571929D01*
X6369643Y-12586214D01*
X6341071Y-12586214D01*
X6312500Y-12571929D01*
X6298214Y-12557643D01*
X6283928Y-12529071D01*
X6269643Y-12471929D01*
X6269643Y-12400500D01*
X6283928Y-12343357D01*
X6298214Y-12314786D01*
X6312500Y-12300500D01*
X6341071Y-12286214D01*
X6569643Y-12586214D02*
X6569643Y-12386214D01*
X6569643Y-12414786D02*
X6583928Y-12400500D01*
X6612500Y-12386214D01*
X6655357Y-12386214D01*
X6683928Y-12400500D01*
X6698214Y-12429071D01*
X6698214Y-12586214D01*
X6698214Y-12429071D02*
X6712500Y-12400500D01*
X6741071Y-12386214D01*
X6783928Y-12386214D01*
X6812500Y-12400500D01*
X6826786Y-12429071D01*
X6826786Y-12586214D01*
X6969643Y-12586214D02*
X6969643Y-12386214D01*
X6969643Y-12414786D02*
X6983928Y-12400500D01*
X7012500Y-12386214D01*
X7055357Y-12386214D01*
X7083928Y-12400500D01*
X7098214Y-12429071D01*
X7098214Y-12586214D01*
X7098214Y-12429071D02*
X7112500Y-12400500D01*
X7141071Y-12386214D01*
X7183928Y-12386214D01*
X7212500Y-12400500D01*
X7226786Y-12429071D01*
X7226786Y-12586214D01*
X7812500Y-12271929D02*
X7555357Y-12657643D01*
X8198214Y-12286214D02*
X8226786Y-12286214D01*
X8255357Y-12300500D01*
X8269643Y-12314786D01*
X8283928Y-12343357D01*
X8298214Y-12400500D01*
X8298214Y-12471929D01*
X8283928Y-12529071D01*
X8269643Y-12557643D01*
X8255357Y-12571929D01*
X8226786Y-12586214D01*
X8198214Y-12586214D01*
X8169643Y-12571929D01*
X8155357Y-12557643D01*
X8141071Y-12529071D01*
X8126786Y-12471929D01*
X8126786Y-12400500D01*
X8141071Y-12343357D01*
X8155357Y-12314786D01*
X8169643Y-12300500D01*
X8198214Y-12286214D01*
X8426786Y-12557643D02*
X8441071Y-12571929D01*
X8426786Y-12586214D01*
X8412500Y-12571929D01*
X8426786Y-12557643D01*
X8426786Y-12586214D01*
X8626786Y-12286214D02*
X8655357Y-12286214D01*
X8683928Y-12300500D01*
X8698214Y-12314786D01*
X8712500Y-12343357D01*
X8726786Y-12400500D01*
X8726786Y-12471929D01*
X8712500Y-12529071D01*
X8698214Y-12557643D01*
X8683928Y-12571929D01*
X8655357Y-12586214D01*
X8626786Y-12586214D01*
X8598214Y-12571929D01*
X8583928Y-12557643D01*
X8569643Y-12529071D01*
X8555357Y-12471929D01*
X8555357Y-12400500D01*
X8569643Y-12343357D01*
X8583928Y-12314786D01*
X8598214Y-12300500D01*
X8626786Y-12286214D01*
X8983928Y-12386214D02*
X8983928Y-12586214D01*
X8912500Y-12271929D02*
X8841071Y-12486214D01*
X9026786Y-12486214D01*
X9155357Y-12586214D02*
X9212500Y-12586214D01*
X9241071Y-12571929D01*
X9255357Y-12557643D01*
X9283928Y-12514786D01*
X9298214Y-12457643D01*
X9298214Y-12343357D01*
X9283928Y-12314786D01*
X9269643Y-12300500D01*
X9241071Y-12286214D01*
X9183928Y-12286214D01*
X9155357Y-12300500D01*
X9141071Y-12314786D01*
X9126786Y-12343357D01*
X9126786Y-12414786D01*
X9141071Y-12443357D01*
X9155357Y-12457643D01*
X9183928Y-12471929D01*
X9241071Y-12471929D01*
X9269643Y-12457643D01*
X9283928Y-12443357D01*
X9298214Y-12414786D01*
X9412500Y-12314786D02*
X9426786Y-12300500D01*
X9455357Y-12286214D01*
X9526786Y-12286214D01*
X9555357Y-12300500D01*
X9569643Y-12314786D01*
X9583928Y-12343357D01*
X9583928Y-12371929D01*
X9569643Y-12414786D01*
X9398214Y-12586214D01*
X9583928Y-12586214D01*
X9698214Y-12286214D02*
X9698214Y-12343357D01*
X9812500Y-12286214D02*
X9812500Y-12343357D01*
X10255357Y-12700500D02*
X10241071Y-12686214D01*
X10212500Y-12643357D01*
X10198214Y-12614786D01*
X10183928Y-12571929D01*
X10169643Y-12500500D01*
X10169643Y-12443357D01*
X10183928Y-12371929D01*
X10198214Y-12329071D01*
X10212500Y-12300500D01*
X10241071Y-12257643D01*
X10255357Y-12243357D01*
X10498214Y-12386214D02*
X10498214Y-12586214D01*
X10426786Y-12271929D02*
X10355357Y-12486214D01*
X10541071Y-12486214D01*
X10883928Y-12586214D02*
X10883928Y-12286214D01*
X11012500Y-12586214D02*
X11012500Y-12429071D01*
X10998214Y-12400500D01*
X10969643Y-12386214D01*
X10926786Y-12386214D01*
X10898214Y-12400500D01*
X10883928Y-12414786D01*
X11198214Y-12586214D02*
X11169643Y-12571929D01*
X11155357Y-12557643D01*
X11141071Y-12529071D01*
X11141071Y-12443357D01*
X11155357Y-12414786D01*
X11169643Y-12400500D01*
X11198214Y-12386214D01*
X11241071Y-12386214D01*
X11269643Y-12400500D01*
X11283928Y-12414786D01*
X11298214Y-12443357D01*
X11298214Y-12529071D01*
X11283928Y-12557643D01*
X11269643Y-12571929D01*
X11241071Y-12586214D01*
X11198214Y-12586214D01*
X11469643Y-12586214D02*
X11441071Y-12571929D01*
X11426786Y-12543357D01*
X11426786Y-12286214D01*
X11698214Y-12571929D02*
X11669643Y-12586214D01*
X11612500Y-12586214D01*
X11583928Y-12571929D01*
X11569643Y-12543357D01*
X11569643Y-12429071D01*
X11583928Y-12400500D01*
X11612500Y-12386214D01*
X11669643Y-12386214D01*
X11698214Y-12400500D01*
X11712500Y-12429071D01*
X11712500Y-12457643D01*
X11569643Y-12486214D01*
X11826786Y-12571929D02*
X11855357Y-12586214D01*
X11912500Y-12586214D01*
X11941071Y-12571929D01*
X11955357Y-12543357D01*
X11955357Y-12529071D01*
X11941071Y-12500500D01*
X11912500Y-12486214D01*
X11869643Y-12486214D01*
X11841071Y-12471929D01*
X11826786Y-12443357D01*
X11826786Y-12429071D01*
X11841071Y-12400500D01*
X11869643Y-12386214D01*
X11912500Y-12386214D01*
X11941071Y-12400500D01*
X12055357Y-12700500D02*
X12069643Y-12686214D01*
X12098214Y-12643357D01*
X12112500Y-12614786D01*
X12126786Y-12571929D01*
X12141071Y-12500500D01*
X12141071Y-12443357D01*
X12126786Y-12371929D01*
X12112500Y-12329071D01*
X12098214Y-12300500D01*
X12069643Y-12257643D01*
X12055357Y-12243357D01*
X4932500Y-12911500D02*
X4997500Y-12846500D01*
X4932500Y-12781500D01*
X4867500Y-12846500D01*
X4932500Y-12911500D01*
X5441071Y-12982214D02*
X5269643Y-12982214D01*
X5355357Y-12982214D02*
X5355357Y-12682214D01*
X5326786Y-12725071D01*
X5298214Y-12753643D01*
X5269643Y-12767929D01*
X5569643Y-12953643D02*
X5583928Y-12967929D01*
X5569643Y-12982214D01*
X5555357Y-12967929D01*
X5569643Y-12953643D01*
X5569643Y-12982214D01*
X5683928Y-12682214D02*
X5869643Y-12682214D01*
X5769643Y-12796500D01*
X5812500Y-12796500D01*
X5841071Y-12810786D01*
X5855357Y-12825071D01*
X5869643Y-12853643D01*
X5869643Y-12925071D01*
X5855357Y-12953643D01*
X5841071Y-12967929D01*
X5812500Y-12982214D01*
X5726786Y-12982214D01*
X5698214Y-12967929D01*
X5683928Y-12953643D01*
X6055357Y-12682214D02*
X6083928Y-12682214D01*
X6112500Y-12696500D01*
X6126786Y-12710786D01*
X6141071Y-12739357D01*
X6155357Y-12796500D01*
X6155357Y-12867929D01*
X6141071Y-12925071D01*
X6126786Y-12953643D01*
X6112500Y-12967929D01*
X6083928Y-12982214D01*
X6055357Y-12982214D01*
X6026786Y-12967929D01*
X6012500Y-12953643D01*
X5998214Y-12925071D01*
X5983928Y-12867929D01*
X5983928Y-12796500D01*
X5998214Y-12739357D01*
X6012500Y-12710786D01*
X6026786Y-12696500D01*
X6055357Y-12682214D01*
X6341071Y-12682214D02*
X6369643Y-12682214D01*
X6398214Y-12696500D01*
X6412500Y-12710786D01*
X6426786Y-12739357D01*
X6441071Y-12796500D01*
X6441071Y-12867929D01*
X6426786Y-12925071D01*
X6412500Y-12953643D01*
X6398214Y-12967929D01*
X6369643Y-12982214D01*
X6341071Y-12982214D01*
X6312500Y-12967929D01*
X6298214Y-12953643D01*
X6283928Y-12925071D01*
X6269643Y-12867929D01*
X6269643Y-12796500D01*
X6283928Y-12739357D01*
X6298214Y-12710786D01*
X6312500Y-12696500D01*
X6341071Y-12682214D01*
X6569643Y-12982214D02*
X6569643Y-12782214D01*
X6569643Y-12810786D02*
X6583928Y-12796500D01*
X6612500Y-12782214D01*
X6655357Y-12782214D01*
X6683928Y-12796500D01*
X6698214Y-12825071D01*
X6698214Y-12982214D01*
X6698214Y-12825071D02*
X6712500Y-12796500D01*
X6741071Y-12782214D01*
X6783928Y-12782214D01*
X6812500Y-12796500D01*
X6826786Y-12825071D01*
X6826786Y-12982214D01*
X6969643Y-12982214D02*
X6969643Y-12782214D01*
X6969643Y-12810786D02*
X6983928Y-12796500D01*
X7012500Y-12782214D01*
X7055357Y-12782214D01*
X7083928Y-12796500D01*
X7098214Y-12825071D01*
X7098214Y-12982214D01*
X7098214Y-12825071D02*
X7112500Y-12796500D01*
X7141071Y-12782214D01*
X7183928Y-12782214D01*
X7212500Y-12796500D01*
X7226786Y-12825071D01*
X7226786Y-12982214D01*
X7812500Y-12667929D02*
X7555357Y-13053643D01*
X8198214Y-12682214D02*
X8226786Y-12682214D01*
X8255357Y-12696500D01*
X8269643Y-12710786D01*
X8283928Y-12739357D01*
X8298214Y-12796500D01*
X8298214Y-12867929D01*
X8283928Y-12925071D01*
X8269643Y-12953643D01*
X8255357Y-12967929D01*
X8226786Y-12982214D01*
X8198214Y-12982214D01*
X8169643Y-12967929D01*
X8155357Y-12953643D01*
X8141071Y-12925071D01*
X8126786Y-12867929D01*
X8126786Y-12796500D01*
X8141071Y-12739357D01*
X8155357Y-12710786D01*
X8169643Y-12696500D01*
X8198214Y-12682214D01*
X8426786Y-12953643D02*
X8441071Y-12967929D01*
X8426786Y-12982214D01*
X8412500Y-12967929D01*
X8426786Y-12953643D01*
X8426786Y-12982214D01*
X8626786Y-12682214D02*
X8655357Y-12682214D01*
X8683928Y-12696500D01*
X8698214Y-12710786D01*
X8712500Y-12739357D01*
X8726786Y-12796500D01*
X8726786Y-12867929D01*
X8712500Y-12925071D01*
X8698214Y-12953643D01*
X8683928Y-12967929D01*
X8655357Y-12982214D01*
X8626786Y-12982214D01*
X8598214Y-12967929D01*
X8583928Y-12953643D01*
X8569643Y-12925071D01*
X8555357Y-12867929D01*
X8555357Y-12796500D01*
X8569643Y-12739357D01*
X8583928Y-12710786D01*
X8598214Y-12696500D01*
X8626786Y-12682214D01*
X8998214Y-12682214D02*
X8855357Y-12682214D01*
X8841071Y-12825071D01*
X8855357Y-12810786D01*
X8883928Y-12796500D01*
X8955357Y-12796500D01*
X8983928Y-12810786D01*
X8998214Y-12825071D01*
X9012500Y-12853643D01*
X9012500Y-12925071D01*
X8998214Y-12953643D01*
X8983928Y-12967929D01*
X8955357Y-12982214D01*
X8883928Y-12982214D01*
X8855357Y-12967929D01*
X8841071Y-12953643D01*
X9298214Y-12982214D02*
X9126786Y-12982214D01*
X9212500Y-12982214D02*
X9212500Y-12682214D01*
X9183928Y-12725071D01*
X9155357Y-12753643D01*
X9126786Y-12767929D01*
X9412500Y-12710786D02*
X9426786Y-12696500D01*
X9455357Y-12682214D01*
X9526786Y-12682214D01*
X9555357Y-12696500D01*
X9569643Y-12710786D01*
X9583928Y-12739357D01*
X9583928Y-12767929D01*
X9569643Y-12810786D01*
X9398214Y-12982214D01*
X9583928Y-12982214D01*
X9698214Y-12682214D02*
X9698214Y-12739357D01*
X9812500Y-12682214D02*
X9812500Y-12739357D01*
X10255357Y-13096500D02*
X10241071Y-13082214D01*
X10212500Y-13039357D01*
X10198214Y-13010786D01*
X10183928Y-12967929D01*
X10169643Y-12896500D01*
X10169643Y-12839357D01*
X10183928Y-12767929D01*
X10198214Y-12725071D01*
X10212500Y-12696500D01*
X10241071Y-12653643D01*
X10255357Y-12639357D01*
X10526786Y-12982214D02*
X10355357Y-12982214D01*
X10441071Y-12982214D02*
X10441071Y-12682214D01*
X10412500Y-12725071D01*
X10383928Y-12753643D01*
X10355357Y-12767929D01*
X10641071Y-12710786D02*
X10655357Y-12696500D01*
X10683928Y-12682214D01*
X10755357Y-12682214D01*
X10783928Y-12696500D01*
X10798214Y-12710786D01*
X10812500Y-12739357D01*
X10812500Y-12767929D01*
X10798214Y-12810786D01*
X10626786Y-12982214D01*
X10812500Y-12982214D01*
X11169643Y-12982214D02*
X11169643Y-12682214D01*
X11298214Y-12982214D02*
X11298214Y-12825071D01*
X11283928Y-12796500D01*
X11255357Y-12782214D01*
X11212500Y-12782214D01*
X11183928Y-12796500D01*
X11169643Y-12810786D01*
X11483928Y-12982214D02*
X11455357Y-12967929D01*
X11441071Y-12953643D01*
X11426786Y-12925071D01*
X11426786Y-12839357D01*
X11441071Y-12810786D01*
X11455357Y-12796500D01*
X11483928Y-12782214D01*
X11526786Y-12782214D01*
X11555357Y-12796500D01*
X11569643Y-12810786D01*
X11583928Y-12839357D01*
X11583928Y-12925071D01*
X11569643Y-12953643D01*
X11555357Y-12967929D01*
X11526786Y-12982214D01*
X11483928Y-12982214D01*
X11755357Y-12982214D02*
X11726786Y-12967929D01*
X11712500Y-12939357D01*
X11712500Y-12682214D01*
X11983928Y-12967929D02*
X11955357Y-12982214D01*
X11898214Y-12982214D01*
X11869643Y-12967929D01*
X11855357Y-12939357D01*
X11855357Y-12825071D01*
X11869643Y-12796500D01*
X11898214Y-12782214D01*
X11955357Y-12782214D01*
X11983928Y-12796500D01*
X11998214Y-12825071D01*
X11998214Y-12853643D01*
X11855357Y-12882214D01*
X12112500Y-12967929D02*
X12141071Y-12982214D01*
X12198214Y-12982214D01*
X12226786Y-12967929D01*
X12241071Y-12939357D01*
X12241071Y-12925071D01*
X12226786Y-12896500D01*
X12198214Y-12882214D01*
X12155357Y-12882214D01*
X12126786Y-12867929D01*
X12112500Y-12839357D01*
X12112500Y-12825071D01*
X12126786Y-12796500D01*
X12155357Y-12782214D01*
X12198214Y-12782214D01*
X12226786Y-12796500D01*
X12341071Y-13096500D02*
X12355357Y-13082214D01*
X12383928Y-13039357D01*
X12398214Y-13010786D01*
X12412500Y-12967929D01*
X12426786Y-12896500D01*
X12426786Y-12839357D01*
X12412500Y-12767929D01*
X12398214Y-12725071D01*
X12383928Y-12696500D01*
X12355357Y-12653643D01*
X12341071Y-12639357D01*
X4847500Y-13167500D02*
X4997500Y-13317500D01*
X4997500Y-13167500D02*
X4847500Y-13317500D01*
X4997500Y-13242500D02*
G75*
G03*
X4997500Y-13242500I-75000J0D01*
G01*
X5441071Y-13378214D02*
X5269643Y-13378214D01*
X5355357Y-13378214D02*
X5355357Y-13078214D01*
X5326786Y-13121071D01*
X5298214Y-13149643D01*
X5269643Y-13163929D01*
X5569643Y-13349643D02*
X5583928Y-13363929D01*
X5569643Y-13378214D01*
X5555357Y-13363929D01*
X5569643Y-13349643D01*
X5569643Y-13378214D01*
X5855357Y-13078214D02*
X5712500Y-13078214D01*
X5698214Y-13221071D01*
X5712500Y-13206786D01*
X5741071Y-13192500D01*
X5812500Y-13192500D01*
X5841071Y-13206786D01*
X5855357Y-13221071D01*
X5869643Y-13249643D01*
X5869643Y-13321071D01*
X5855357Y-13349643D01*
X5841071Y-13363929D01*
X5812500Y-13378214D01*
X5741071Y-13378214D01*
X5712500Y-13363929D01*
X5698214Y-13349643D01*
X6055357Y-13078214D02*
X6083928Y-13078214D01*
X6112500Y-13092500D01*
X6126786Y-13106786D01*
X6141071Y-13135357D01*
X6155357Y-13192500D01*
X6155357Y-13263929D01*
X6141071Y-13321071D01*
X6126786Y-13349643D01*
X6112500Y-13363929D01*
X6083928Y-13378214D01*
X6055357Y-13378214D01*
X6026786Y-13363929D01*
X6012500Y-13349643D01*
X5998214Y-13321071D01*
X5983928Y-13263929D01*
X5983928Y-13192500D01*
X5998214Y-13135357D01*
X6012500Y-13106786D01*
X6026786Y-13092500D01*
X6055357Y-13078214D01*
X6341071Y-13078214D02*
X6369643Y-13078214D01*
X6398214Y-13092500D01*
X6412500Y-13106786D01*
X6426786Y-13135357D01*
X6441071Y-13192500D01*
X6441071Y-13263929D01*
X6426786Y-13321071D01*
X6412500Y-13349643D01*
X6398214Y-13363929D01*
X6369643Y-13378214D01*
X6341071Y-13378214D01*
X6312500Y-13363929D01*
X6298214Y-13349643D01*
X6283928Y-13321071D01*
X6269643Y-13263929D01*
X6269643Y-13192500D01*
X6283928Y-13135357D01*
X6298214Y-13106786D01*
X6312500Y-13092500D01*
X6341071Y-13078214D01*
X6569643Y-13378214D02*
X6569643Y-13178214D01*
X6569643Y-13206786D02*
X6583928Y-13192500D01*
X6612500Y-13178214D01*
X6655357Y-13178214D01*
X6683928Y-13192500D01*
X6698214Y-13221071D01*
X6698214Y-13378214D01*
X6698214Y-13221071D02*
X6712500Y-13192500D01*
X6741071Y-13178214D01*
X6783928Y-13178214D01*
X6812500Y-13192500D01*
X6826786Y-13221071D01*
X6826786Y-13378214D01*
X6969643Y-13378214D02*
X6969643Y-13178214D01*
X6969643Y-13206786D02*
X6983928Y-13192500D01*
X7012500Y-13178214D01*
X7055357Y-13178214D01*
X7083928Y-13192500D01*
X7098214Y-13221071D01*
X7098214Y-13378214D01*
X7098214Y-13221071D02*
X7112500Y-13192500D01*
X7141071Y-13178214D01*
X7183928Y-13178214D01*
X7212500Y-13192500D01*
X7226786Y-13221071D01*
X7226786Y-13378214D01*
X7812500Y-13063929D02*
X7555357Y-13449643D01*
X8198214Y-13078214D02*
X8226786Y-13078214D01*
X8255357Y-13092500D01*
X8269643Y-13106786D01*
X8283928Y-13135357D01*
X8298214Y-13192500D01*
X8298214Y-13263929D01*
X8283928Y-13321071D01*
X8269643Y-13349643D01*
X8255357Y-13363929D01*
X8226786Y-13378214D01*
X8198214Y-13378214D01*
X8169643Y-13363929D01*
X8155357Y-13349643D01*
X8141071Y-13321071D01*
X8126786Y-13263929D01*
X8126786Y-13192500D01*
X8141071Y-13135357D01*
X8155357Y-13106786D01*
X8169643Y-13092500D01*
X8198214Y-13078214D01*
X8426786Y-13349643D02*
X8441071Y-13363929D01*
X8426786Y-13378214D01*
X8412500Y-13363929D01*
X8426786Y-13349643D01*
X8426786Y-13378214D01*
X8626786Y-13078214D02*
X8655357Y-13078214D01*
X8683928Y-13092500D01*
X8698214Y-13106786D01*
X8712500Y-13135357D01*
X8726786Y-13192500D01*
X8726786Y-13263929D01*
X8712500Y-13321071D01*
X8698214Y-13349643D01*
X8683928Y-13363929D01*
X8655357Y-13378214D01*
X8626786Y-13378214D01*
X8598214Y-13363929D01*
X8583928Y-13349643D01*
X8569643Y-13321071D01*
X8555357Y-13263929D01*
X8555357Y-13192500D01*
X8569643Y-13135357D01*
X8583928Y-13106786D01*
X8598214Y-13092500D01*
X8626786Y-13078214D01*
X8998214Y-13078214D02*
X8855357Y-13078214D01*
X8841071Y-13221071D01*
X8855357Y-13206786D01*
X8883928Y-13192500D01*
X8955357Y-13192500D01*
X8983928Y-13206786D01*
X8998214Y-13221071D01*
X9012500Y-13249643D01*
X9012500Y-13321071D01*
X8998214Y-13349643D01*
X8983928Y-13363929D01*
X8955357Y-13378214D01*
X8883928Y-13378214D01*
X8855357Y-13363929D01*
X8841071Y-13349643D01*
X9155357Y-13378214D02*
X9212500Y-13378214D01*
X9241071Y-13363929D01*
X9255357Y-13349643D01*
X9283928Y-13306786D01*
X9298214Y-13249643D01*
X9298214Y-13135357D01*
X9283928Y-13106786D01*
X9269643Y-13092500D01*
X9241071Y-13078214D01*
X9183928Y-13078214D01*
X9155357Y-13092500D01*
X9141071Y-13106786D01*
X9126786Y-13135357D01*
X9126786Y-13206786D01*
X9141071Y-13235357D01*
X9155357Y-13249643D01*
X9183928Y-13263929D01*
X9241071Y-13263929D01*
X9269643Y-13249643D01*
X9283928Y-13235357D01*
X9298214Y-13206786D01*
X9583928Y-13378214D02*
X9412500Y-13378214D01*
X9498214Y-13378214D02*
X9498214Y-13078214D01*
X9469643Y-13121071D01*
X9441071Y-13149643D01*
X9412500Y-13163929D01*
X9698214Y-13078214D02*
X9698214Y-13135357D01*
X9812500Y-13078214D02*
X9812500Y-13135357D01*
X10255357Y-13492500D02*
X10241071Y-13478214D01*
X10212500Y-13435357D01*
X10198214Y-13406786D01*
X10183928Y-13363929D01*
X10169643Y-13292500D01*
X10169643Y-13235357D01*
X10183928Y-13163929D01*
X10198214Y-13121071D01*
X10212500Y-13092500D01*
X10241071Y-13049643D01*
X10255357Y-13035357D01*
X10426786Y-13078214D02*
X10455357Y-13078214D01*
X10483928Y-13092500D01*
X10498214Y-13106786D01*
X10512500Y-13135357D01*
X10526786Y-13192500D01*
X10526786Y-13263929D01*
X10512500Y-13321071D01*
X10498214Y-13349643D01*
X10483928Y-13363929D01*
X10455357Y-13378214D01*
X10426786Y-13378214D01*
X10398214Y-13363929D01*
X10383928Y-13349643D01*
X10369643Y-13321071D01*
X10355357Y-13263929D01*
X10355357Y-13192500D01*
X10369643Y-13135357D01*
X10383928Y-13106786D01*
X10398214Y-13092500D01*
X10426786Y-13078214D01*
X10883928Y-13378214D02*
X10883928Y-13078214D01*
X11012500Y-13378214D02*
X11012500Y-13221071D01*
X10998214Y-13192500D01*
X10969643Y-13178214D01*
X10926786Y-13178214D01*
X10898214Y-13192500D01*
X10883928Y-13206786D01*
X11198214Y-13378214D02*
X11169643Y-13363929D01*
X11155357Y-13349643D01*
X11141071Y-13321071D01*
X11141071Y-13235357D01*
X11155357Y-13206786D01*
X11169643Y-13192500D01*
X11198214Y-13178214D01*
X11241071Y-13178214D01*
X11269643Y-13192500D01*
X11283928Y-13206786D01*
X11298214Y-13235357D01*
X11298214Y-13321071D01*
X11283928Y-13349643D01*
X11269643Y-13363929D01*
X11241071Y-13378214D01*
X11198214Y-13378214D01*
X11469643Y-13378214D02*
X11441071Y-13363929D01*
X11426786Y-13335357D01*
X11426786Y-13078214D01*
X11698214Y-13363929D02*
X11669643Y-13378214D01*
X11612500Y-13378214D01*
X11583928Y-13363929D01*
X11569643Y-13335357D01*
X11569643Y-13221071D01*
X11583928Y-13192500D01*
X11612500Y-13178214D01*
X11669643Y-13178214D01*
X11698214Y-13192500D01*
X11712500Y-13221071D01*
X11712500Y-13249643D01*
X11569643Y-13278214D01*
X11826786Y-13363929D02*
X11855357Y-13378214D01*
X11912500Y-13378214D01*
X11941071Y-13363929D01*
X11955357Y-13335357D01*
X11955357Y-13321071D01*
X11941071Y-13292500D01*
X11912500Y-13278214D01*
X11869643Y-13278214D01*
X11841071Y-13263929D01*
X11826786Y-13235357D01*
X11826786Y-13221071D01*
X11841071Y-13192500D01*
X11869643Y-13178214D01*
X11912500Y-13178214D01*
X11941071Y-13192500D01*
X12312500Y-13263929D02*
X12541071Y-13263929D01*
X12426786Y-13378214D02*
X12426786Y-13149643D01*
X12898214Y-13106786D02*
X12912500Y-13092500D01*
X12941071Y-13078214D01*
X13012500Y-13078214D01*
X13041071Y-13092500D01*
X13055357Y-13106786D01*
X13069643Y-13135357D01*
X13069643Y-13163929D01*
X13055357Y-13206786D01*
X12883928Y-13378214D01*
X13069643Y-13378214D01*
X13412500Y-13363929D02*
X13441071Y-13378214D01*
X13498214Y-13378214D01*
X13526786Y-13363929D01*
X13541071Y-13335357D01*
X13541071Y-13321071D01*
X13526786Y-13292500D01*
X13498214Y-13278214D01*
X13455357Y-13278214D01*
X13426786Y-13263929D01*
X13412500Y-13235357D01*
X13412500Y-13221071D01*
X13426786Y-13192500D01*
X13455357Y-13178214D01*
X13498214Y-13178214D01*
X13526786Y-13192500D01*
X13712500Y-13378214D02*
X13683928Y-13363929D01*
X13669643Y-13335357D01*
X13669643Y-13078214D01*
X13869643Y-13378214D02*
X13841071Y-13363929D01*
X13826786Y-13349643D01*
X13812500Y-13321071D01*
X13812500Y-13235357D01*
X13826786Y-13206786D01*
X13841071Y-13192500D01*
X13869643Y-13178214D01*
X13912500Y-13178214D01*
X13941071Y-13192500D01*
X13955357Y-13206786D01*
X13969643Y-13235357D01*
X13969643Y-13321071D01*
X13955357Y-13349643D01*
X13941071Y-13363929D01*
X13912500Y-13378214D01*
X13869643Y-13378214D01*
X14055357Y-13178214D02*
X14169643Y-13178214D01*
X14098214Y-13078214D02*
X14098214Y-13335357D01*
X14112500Y-13363929D01*
X14141071Y-13378214D01*
X14169643Y-13378214D01*
X14255357Y-13363929D02*
X14283928Y-13378214D01*
X14341071Y-13378214D01*
X14369643Y-13363929D01*
X14383928Y-13335357D01*
X14383928Y-13321071D01*
X14369643Y-13292500D01*
X14341071Y-13278214D01*
X14298214Y-13278214D01*
X14269643Y-13263929D01*
X14255357Y-13235357D01*
X14255357Y-13221071D01*
X14269643Y-13192500D01*
X14298214Y-13178214D01*
X14341071Y-13178214D01*
X14369643Y-13192500D01*
X14483928Y-13492500D02*
X14498214Y-13478214D01*
X14526786Y-13435357D01*
X14541071Y-13406786D01*
X14555357Y-13363929D01*
X14569643Y-13292500D01*
X14569643Y-13235357D01*
X14555357Y-13163929D01*
X14541071Y-13121071D01*
X14526786Y-13092500D01*
X14498214Y-13049643D01*
X14483928Y-13035357D01*
M02*
