%FSLAX45Y45*%
G04 Gerber Fmt 4.5, Leading zero omitted, Abs format (unit mm)*
G04 Created by KiCad (PCBNEW 5.1.12-84ad8e8a86~92~ubuntu20.04.1) date 2022-01-09 20:19:19*
%MOMM*%
%LPD*%
G01*
G04 APERTURE LIST*
%TA.AperFunction,Profile*%
%ADD10C,0.050000*%
%TD*%
%ADD11C,0.200000*%
%ADD12C,0.300000*%
G04 APERTURE END LIST*
D10*
X5000000Y-10300000D02*
X5000000Y-5000000D01*
X14000000Y-10300000D02*
X5000000Y-10300000D01*
X14000000Y-5000000D02*
X14000000Y-10300000D01*
X5000000Y-5000000D02*
X14000000Y-5000000D01*
D11*
X9507000Y-6344700D02*
X9797000Y-6634700D01*
X9797000Y-6344700D02*
X9507000Y-6634700D01*
X9697000Y-6354700D02*
X9607000Y-6354700D01*
X9697000Y-6624700D02*
X9607000Y-6624700D01*
X9607000Y-6354700D02*
G75*
G03*
X9607000Y-6624700I0J-135000D01*
G01*
X9697000Y-6624700D02*
G75*
G03*
X9697000Y-6354700I0J135000D01*
G01*
X9507000Y-8656100D02*
X9797000Y-8946100D01*
X9797000Y-8656100D02*
X9507000Y-8946100D01*
X9697000Y-8666100D02*
X9607000Y-8666100D01*
X9697000Y-8936100D02*
X9607000Y-8936100D01*
X9607000Y-8666100D02*
G75*
G03*
X9607000Y-8936100I0J-135000D01*
G01*
X9697000Y-8936100D02*
G75*
G03*
X9697000Y-8666100I0J135000D01*
G01*
X11742200Y-6344700D02*
X12032200Y-6634700D01*
X12032200Y-6344700D02*
X11742200Y-6634700D01*
X11932200Y-6354700D02*
X11842200Y-6354700D01*
X11932200Y-6624700D02*
X11842200Y-6624700D01*
X11842200Y-6354700D02*
G75*
G03*
X11842200Y-6624700I0J-135000D01*
G01*
X11932200Y-6624700D02*
G75*
G03*
X11932200Y-6354700I0J135000D01*
G01*
X11742200Y-8656100D02*
X12032200Y-8946100D01*
X12032200Y-8656100D02*
X11742200Y-8946100D01*
X11932200Y-8666100D02*
X11842200Y-8666100D01*
X11932200Y-8936100D02*
X11842200Y-8936100D01*
X11842200Y-8666100D02*
G75*
G03*
X11842200Y-8936100I0J-135000D01*
G01*
X11932200Y-8936100D02*
G75*
G03*
X11932200Y-8666100I0J135000D01*
G01*
X5510000Y-7650000D02*
G75*
G03*
X5510000Y-7650000I-185000J0D01*
G01*
X13860000Y-7650000D02*
G75*
G03*
X13860000Y-7650000I-185000J0D01*
G01*
D12*
X5283928Y-10768214D02*
X5283928Y-10468214D01*
X5355357Y-10468214D01*
X5398214Y-10482500D01*
X5426786Y-10511072D01*
X5441071Y-10539643D01*
X5455357Y-10596786D01*
X5455357Y-10639643D01*
X5441071Y-10696786D01*
X5426786Y-10725357D01*
X5398214Y-10753929D01*
X5355357Y-10768214D01*
X5283928Y-10768214D01*
X5583928Y-10768214D02*
X5583928Y-10568214D01*
X5583928Y-10625357D02*
X5598214Y-10596786D01*
X5612500Y-10582500D01*
X5641071Y-10568214D01*
X5669643Y-10568214D01*
X5769643Y-10768214D02*
X5769643Y-10568214D01*
X5769643Y-10468214D02*
X5755357Y-10482500D01*
X5769643Y-10496786D01*
X5783928Y-10482500D01*
X5769643Y-10468214D01*
X5769643Y-10496786D01*
X5955357Y-10768214D02*
X5926786Y-10753929D01*
X5912500Y-10725357D01*
X5912500Y-10468214D01*
X6112500Y-10768214D02*
X6083928Y-10753929D01*
X6069643Y-10725357D01*
X6069643Y-10468214D01*
X6455357Y-10768214D02*
X6455357Y-10468214D01*
X6555357Y-10682500D01*
X6655357Y-10468214D01*
X6655357Y-10768214D01*
X6926786Y-10768214D02*
X6926786Y-10611072D01*
X6912500Y-10582500D01*
X6883928Y-10568214D01*
X6826786Y-10568214D01*
X6798214Y-10582500D01*
X6926786Y-10753929D02*
X6898214Y-10768214D01*
X6826786Y-10768214D01*
X6798214Y-10753929D01*
X6783928Y-10725357D01*
X6783928Y-10696786D01*
X6798214Y-10668214D01*
X6826786Y-10653929D01*
X6898214Y-10653929D01*
X6926786Y-10639643D01*
X7069643Y-10568214D02*
X7069643Y-10868214D01*
X7069643Y-10582500D02*
X7098214Y-10568214D01*
X7155357Y-10568214D01*
X7183928Y-10582500D01*
X7198214Y-10596786D01*
X7212500Y-10625357D01*
X7212500Y-10711072D01*
X7198214Y-10739643D01*
X7183928Y-10753929D01*
X7155357Y-10768214D01*
X7098214Y-10768214D01*
X7069643Y-10753929D01*
X7341071Y-10739643D02*
X7355357Y-10753929D01*
X7341071Y-10768214D01*
X7326786Y-10753929D01*
X7341071Y-10739643D01*
X7341071Y-10768214D01*
X7341071Y-10582500D02*
X7355357Y-10596786D01*
X7341071Y-10611072D01*
X7326786Y-10596786D01*
X7341071Y-10582500D01*
X7341071Y-10611072D01*
X4707500Y-11117500D02*
X4997500Y-11407500D01*
X4997500Y-11117500D02*
X4707500Y-11407500D01*
X5269643Y-11126786D02*
X5283928Y-11112500D01*
X5312500Y-11098214D01*
X5383928Y-11098214D01*
X5412500Y-11112500D01*
X5426786Y-11126786D01*
X5441071Y-11155357D01*
X5441071Y-11183929D01*
X5426786Y-11226786D01*
X5255357Y-11398214D01*
X5441071Y-11398214D01*
X5569643Y-11369643D02*
X5583928Y-11383929D01*
X5569643Y-11398214D01*
X5555357Y-11383929D01*
X5569643Y-11369643D01*
X5569643Y-11398214D01*
X5726786Y-11398214D02*
X5783928Y-11398214D01*
X5812500Y-11383929D01*
X5826786Y-11369643D01*
X5855357Y-11326786D01*
X5869643Y-11269643D01*
X5869643Y-11155357D01*
X5855357Y-11126786D01*
X5841071Y-11112500D01*
X5812500Y-11098214D01*
X5755357Y-11098214D01*
X5726786Y-11112500D01*
X5712500Y-11126786D01*
X5698214Y-11155357D01*
X5698214Y-11226786D01*
X5712500Y-11255357D01*
X5726786Y-11269643D01*
X5755357Y-11283929D01*
X5812500Y-11283929D01*
X5841071Y-11269643D01*
X5855357Y-11255357D01*
X5869643Y-11226786D01*
X6055357Y-11098214D02*
X6083928Y-11098214D01*
X6112500Y-11112500D01*
X6126786Y-11126786D01*
X6141071Y-11155357D01*
X6155357Y-11212500D01*
X6155357Y-11283929D01*
X6141071Y-11341071D01*
X6126786Y-11369643D01*
X6112500Y-11383929D01*
X6083928Y-11398214D01*
X6055357Y-11398214D01*
X6026786Y-11383929D01*
X6012500Y-11369643D01*
X5998214Y-11341071D01*
X5983928Y-11283929D01*
X5983928Y-11212500D01*
X5998214Y-11155357D01*
X6012500Y-11126786D01*
X6026786Y-11112500D01*
X6055357Y-11098214D01*
X6341071Y-11098214D02*
X6369643Y-11098214D01*
X6398214Y-11112500D01*
X6412500Y-11126786D01*
X6426786Y-11155357D01*
X6441071Y-11212500D01*
X6441071Y-11283929D01*
X6426786Y-11341071D01*
X6412500Y-11369643D01*
X6398214Y-11383929D01*
X6369643Y-11398214D01*
X6341071Y-11398214D01*
X6312500Y-11383929D01*
X6298214Y-11369643D01*
X6283928Y-11341071D01*
X6269643Y-11283929D01*
X6269643Y-11212500D01*
X6283928Y-11155357D01*
X6298214Y-11126786D01*
X6312500Y-11112500D01*
X6341071Y-11098214D01*
X6569643Y-11398214D02*
X6569643Y-11198214D01*
X6569643Y-11226786D02*
X6583928Y-11212500D01*
X6612500Y-11198214D01*
X6655357Y-11198214D01*
X6683928Y-11212500D01*
X6698214Y-11241071D01*
X6698214Y-11398214D01*
X6698214Y-11241071D02*
X6712500Y-11212500D01*
X6741071Y-11198214D01*
X6783928Y-11198214D01*
X6812500Y-11212500D01*
X6826786Y-11241071D01*
X6826786Y-11398214D01*
X6969643Y-11398214D02*
X6969643Y-11198214D01*
X6969643Y-11226786D02*
X6983928Y-11212500D01*
X7012500Y-11198214D01*
X7055357Y-11198214D01*
X7083928Y-11212500D01*
X7098214Y-11241071D01*
X7098214Y-11398214D01*
X7098214Y-11241071D02*
X7112500Y-11212500D01*
X7141071Y-11198214D01*
X7183928Y-11198214D01*
X7212500Y-11212500D01*
X7226786Y-11241071D01*
X7226786Y-11398214D01*
X7812500Y-11083929D02*
X7555357Y-11469643D01*
X8198214Y-11098214D02*
X8226786Y-11098214D01*
X8255357Y-11112500D01*
X8269643Y-11126786D01*
X8283928Y-11155357D01*
X8298214Y-11212500D01*
X8298214Y-11283929D01*
X8283928Y-11341071D01*
X8269643Y-11369643D01*
X8255357Y-11383929D01*
X8226786Y-11398214D01*
X8198214Y-11398214D01*
X8169643Y-11383929D01*
X8155357Y-11369643D01*
X8141071Y-11341071D01*
X8126786Y-11283929D01*
X8126786Y-11212500D01*
X8141071Y-11155357D01*
X8155357Y-11126786D01*
X8169643Y-11112500D01*
X8198214Y-11098214D01*
X8426786Y-11369643D02*
X8441071Y-11383929D01*
X8426786Y-11398214D01*
X8412500Y-11383929D01*
X8426786Y-11369643D01*
X8426786Y-11398214D01*
X8726786Y-11398214D02*
X8555357Y-11398214D01*
X8641071Y-11398214D02*
X8641071Y-11098214D01*
X8612500Y-11141072D01*
X8583928Y-11169643D01*
X8555357Y-11183929D01*
X9012500Y-11398214D02*
X8841071Y-11398214D01*
X8926786Y-11398214D02*
X8926786Y-11098214D01*
X8898214Y-11141072D01*
X8869643Y-11169643D01*
X8841071Y-11183929D01*
X9269643Y-11198214D02*
X9269643Y-11398214D01*
X9198214Y-11083929D02*
X9126786Y-11298214D01*
X9312500Y-11298214D01*
X9412500Y-11126786D02*
X9426786Y-11112500D01*
X9455357Y-11098214D01*
X9526786Y-11098214D01*
X9555357Y-11112500D01*
X9569643Y-11126786D01*
X9583928Y-11155357D01*
X9583928Y-11183929D01*
X9569643Y-11226786D01*
X9398214Y-11398214D01*
X9583928Y-11398214D01*
X9698214Y-11098214D02*
X9698214Y-11155357D01*
X9812500Y-11098214D02*
X9812500Y-11155357D01*
X10255357Y-11512500D02*
X10241071Y-11498214D01*
X10212500Y-11455357D01*
X10198214Y-11426786D01*
X10183928Y-11383929D01*
X10169643Y-11312500D01*
X10169643Y-11255357D01*
X10183928Y-11183929D01*
X10198214Y-11141072D01*
X10212500Y-11112500D01*
X10241071Y-11069643D01*
X10255357Y-11055357D01*
X10426786Y-11098214D02*
X10455357Y-11098214D01*
X10483928Y-11112500D01*
X10498214Y-11126786D01*
X10512500Y-11155357D01*
X10526786Y-11212500D01*
X10526786Y-11283929D01*
X10512500Y-11341071D01*
X10498214Y-11369643D01*
X10483928Y-11383929D01*
X10455357Y-11398214D01*
X10426786Y-11398214D01*
X10398214Y-11383929D01*
X10383928Y-11369643D01*
X10369643Y-11341071D01*
X10355357Y-11283929D01*
X10355357Y-11212500D01*
X10369643Y-11155357D01*
X10383928Y-11126786D01*
X10398214Y-11112500D01*
X10426786Y-11098214D01*
X10883928Y-11398214D02*
X10883928Y-11098214D01*
X11012500Y-11398214D02*
X11012500Y-11241071D01*
X10998214Y-11212500D01*
X10969643Y-11198214D01*
X10926786Y-11198214D01*
X10898214Y-11212500D01*
X10883928Y-11226786D01*
X11198214Y-11398214D02*
X11169643Y-11383929D01*
X11155357Y-11369643D01*
X11141071Y-11341071D01*
X11141071Y-11255357D01*
X11155357Y-11226786D01*
X11169643Y-11212500D01*
X11198214Y-11198214D01*
X11241071Y-11198214D01*
X11269643Y-11212500D01*
X11283928Y-11226786D01*
X11298214Y-11255357D01*
X11298214Y-11341071D01*
X11283928Y-11369643D01*
X11269643Y-11383929D01*
X11241071Y-11398214D01*
X11198214Y-11398214D01*
X11469643Y-11398214D02*
X11441071Y-11383929D01*
X11426786Y-11355357D01*
X11426786Y-11098214D01*
X11698214Y-11383929D02*
X11669643Y-11398214D01*
X11612500Y-11398214D01*
X11583928Y-11383929D01*
X11569643Y-11355357D01*
X11569643Y-11241071D01*
X11583928Y-11212500D01*
X11612500Y-11198214D01*
X11669643Y-11198214D01*
X11698214Y-11212500D01*
X11712500Y-11241071D01*
X11712500Y-11269643D01*
X11569643Y-11298214D01*
X11826786Y-11383929D02*
X11855357Y-11398214D01*
X11912500Y-11398214D01*
X11941071Y-11383929D01*
X11955357Y-11355357D01*
X11955357Y-11341071D01*
X11941071Y-11312500D01*
X11912500Y-11298214D01*
X11869643Y-11298214D01*
X11841071Y-11283929D01*
X11826786Y-11255357D01*
X11826786Y-11241071D01*
X11841071Y-11212500D01*
X11869643Y-11198214D01*
X11912500Y-11198214D01*
X11941071Y-11212500D01*
X12312500Y-11283929D02*
X12541071Y-11283929D01*
X12426786Y-11398214D02*
X12426786Y-11169643D01*
X13041071Y-11198214D02*
X13041071Y-11398214D01*
X12969643Y-11083929D02*
X12898214Y-11298214D01*
X13083928Y-11298214D01*
X13412500Y-11383929D02*
X13441071Y-11398214D01*
X13498214Y-11398214D01*
X13526786Y-11383929D01*
X13541071Y-11355357D01*
X13541071Y-11341071D01*
X13526786Y-11312500D01*
X13498214Y-11298214D01*
X13455357Y-11298214D01*
X13426786Y-11283929D01*
X13412500Y-11255357D01*
X13412500Y-11241071D01*
X13426786Y-11212500D01*
X13455357Y-11198214D01*
X13498214Y-11198214D01*
X13526786Y-11212500D01*
X13712500Y-11398214D02*
X13683928Y-11383929D01*
X13669643Y-11355357D01*
X13669643Y-11098214D01*
X13869643Y-11398214D02*
X13841071Y-11383929D01*
X13826786Y-11369643D01*
X13812500Y-11341071D01*
X13812500Y-11255357D01*
X13826786Y-11226786D01*
X13841071Y-11212500D01*
X13869643Y-11198214D01*
X13912500Y-11198214D01*
X13941071Y-11212500D01*
X13955357Y-11226786D01*
X13969643Y-11255357D01*
X13969643Y-11341071D01*
X13955357Y-11369643D01*
X13941071Y-11383929D01*
X13912500Y-11398214D01*
X13869643Y-11398214D01*
X14055357Y-11198214D02*
X14169643Y-11198214D01*
X14098214Y-11098214D02*
X14098214Y-11355357D01*
X14112500Y-11383929D01*
X14141071Y-11398214D01*
X14169643Y-11398214D01*
X14255357Y-11383929D02*
X14283928Y-11398214D01*
X14341071Y-11398214D01*
X14369643Y-11383929D01*
X14383928Y-11355357D01*
X14383928Y-11341071D01*
X14369643Y-11312500D01*
X14341071Y-11298214D01*
X14298214Y-11298214D01*
X14269643Y-11283929D01*
X14255357Y-11255357D01*
X14255357Y-11241071D01*
X14269643Y-11212500D01*
X14298214Y-11198214D01*
X14341071Y-11198214D01*
X14369643Y-11212500D01*
X14483928Y-11512500D02*
X14498214Y-11498214D01*
X14526786Y-11455357D01*
X14541071Y-11426786D01*
X14555357Y-11383929D01*
X14569643Y-11312500D01*
X14569643Y-11255357D01*
X14555357Y-11183929D01*
X14541071Y-11141072D01*
X14526786Y-11112500D01*
X14498214Y-11069643D01*
X14483928Y-11055357D01*
X15026786Y-11512500D02*
X15012500Y-11498214D01*
X14983928Y-11455357D01*
X14969643Y-11426786D01*
X14955357Y-11383929D01*
X14941071Y-11312500D01*
X14941071Y-11255357D01*
X14955357Y-11183929D01*
X14969643Y-11141072D01*
X14983928Y-11112500D01*
X15012500Y-11069643D01*
X15026786Y-11055357D01*
X15141071Y-11198214D02*
X15141071Y-11398214D01*
X15141071Y-11226786D02*
X15155357Y-11212500D01*
X15183928Y-11198214D01*
X15226786Y-11198214D01*
X15255357Y-11212500D01*
X15269643Y-11241071D01*
X15269643Y-11398214D01*
X15455357Y-11398214D02*
X15426786Y-11383929D01*
X15412500Y-11369643D01*
X15398214Y-11341071D01*
X15398214Y-11255357D01*
X15412500Y-11226786D01*
X15426786Y-11212500D01*
X15455357Y-11198214D01*
X15498214Y-11198214D01*
X15526786Y-11212500D01*
X15541071Y-11226786D01*
X15555357Y-11255357D01*
X15555357Y-11341071D01*
X15541071Y-11369643D01*
X15526786Y-11383929D01*
X15498214Y-11398214D01*
X15455357Y-11398214D01*
X15641071Y-11198214D02*
X15755357Y-11198214D01*
X15683928Y-11098214D02*
X15683928Y-11355357D01*
X15698214Y-11383929D01*
X15726786Y-11398214D01*
X15755357Y-11398214D01*
X16083928Y-11198214D02*
X16083928Y-11498214D01*
X16083928Y-11212500D02*
X16112500Y-11198214D01*
X16169643Y-11198214D01*
X16198214Y-11212500D01*
X16212500Y-11226786D01*
X16226786Y-11255357D01*
X16226786Y-11341071D01*
X16212500Y-11369643D01*
X16198214Y-11383929D01*
X16169643Y-11398214D01*
X16112500Y-11398214D01*
X16083928Y-11383929D01*
X16398214Y-11398214D02*
X16369643Y-11383929D01*
X16355357Y-11355357D01*
X16355357Y-11098214D01*
X16641071Y-11398214D02*
X16641071Y-11241071D01*
X16626786Y-11212500D01*
X16598214Y-11198214D01*
X16541071Y-11198214D01*
X16512500Y-11212500D01*
X16641071Y-11383929D02*
X16612500Y-11398214D01*
X16541071Y-11398214D01*
X16512500Y-11383929D01*
X16498214Y-11355357D01*
X16498214Y-11326786D01*
X16512500Y-11298214D01*
X16541071Y-11283929D01*
X16612500Y-11283929D01*
X16641071Y-11269643D01*
X16741071Y-11198214D02*
X16855357Y-11198214D01*
X16783928Y-11098214D02*
X16783928Y-11355357D01*
X16798214Y-11383929D01*
X16826786Y-11398214D01*
X16855357Y-11398214D01*
X17069643Y-11383929D02*
X17041071Y-11398214D01*
X16983928Y-11398214D01*
X16955357Y-11383929D01*
X16941071Y-11355357D01*
X16941071Y-11241071D01*
X16955357Y-11212500D01*
X16983928Y-11198214D01*
X17041071Y-11198214D01*
X17069643Y-11212500D01*
X17083928Y-11241071D01*
X17083928Y-11269643D01*
X16941071Y-11298214D01*
X17341071Y-11398214D02*
X17341071Y-11098214D01*
X17341071Y-11383929D02*
X17312500Y-11398214D01*
X17255357Y-11398214D01*
X17226786Y-11383929D01*
X17212500Y-11369643D01*
X17198214Y-11341071D01*
X17198214Y-11255357D01*
X17212500Y-11226786D01*
X17226786Y-11212500D01*
X17255357Y-11198214D01*
X17312500Y-11198214D01*
X17341071Y-11212500D01*
X17455357Y-11512500D02*
X17469643Y-11498214D01*
X17498214Y-11455357D01*
X17512500Y-11426786D01*
X17526786Y-11383929D01*
X17541071Y-11312500D01*
X17541071Y-11255357D01*
X17526786Y-11183929D01*
X17512500Y-11141072D01*
X17498214Y-11112500D01*
X17469643Y-11069643D01*
X17455357Y-11055357D01*
X4997500Y-11682500D02*
G75*
G03*
X4997500Y-11682500I-185000J0D01*
G01*
X5255357Y-11518214D02*
X5441071Y-11518214D01*
X5341071Y-11632500D01*
X5383928Y-11632500D01*
X5412500Y-11646786D01*
X5426786Y-11661071D01*
X5441071Y-11689643D01*
X5441071Y-11761071D01*
X5426786Y-11789643D01*
X5412500Y-11803929D01*
X5383928Y-11818214D01*
X5298214Y-11818214D01*
X5269643Y-11803929D01*
X5255357Y-11789643D01*
X5569643Y-11789643D02*
X5583928Y-11803929D01*
X5569643Y-11818214D01*
X5555357Y-11803929D01*
X5569643Y-11789643D01*
X5569643Y-11818214D01*
X5683928Y-11518214D02*
X5883928Y-11518214D01*
X5755357Y-11818214D01*
X6055357Y-11518214D02*
X6083928Y-11518214D01*
X6112500Y-11532500D01*
X6126786Y-11546786D01*
X6141071Y-11575357D01*
X6155357Y-11632500D01*
X6155357Y-11703929D01*
X6141071Y-11761071D01*
X6126786Y-11789643D01*
X6112500Y-11803929D01*
X6083928Y-11818214D01*
X6055357Y-11818214D01*
X6026786Y-11803929D01*
X6012500Y-11789643D01*
X5998214Y-11761071D01*
X5983928Y-11703929D01*
X5983928Y-11632500D01*
X5998214Y-11575357D01*
X6012500Y-11546786D01*
X6026786Y-11532500D01*
X6055357Y-11518214D01*
X6341071Y-11518214D02*
X6369643Y-11518214D01*
X6398214Y-11532500D01*
X6412500Y-11546786D01*
X6426786Y-11575357D01*
X6441071Y-11632500D01*
X6441071Y-11703929D01*
X6426786Y-11761071D01*
X6412500Y-11789643D01*
X6398214Y-11803929D01*
X6369643Y-11818214D01*
X6341071Y-11818214D01*
X6312500Y-11803929D01*
X6298214Y-11789643D01*
X6283928Y-11761071D01*
X6269643Y-11703929D01*
X6269643Y-11632500D01*
X6283928Y-11575357D01*
X6298214Y-11546786D01*
X6312500Y-11532500D01*
X6341071Y-11518214D01*
X6569643Y-11818214D02*
X6569643Y-11618214D01*
X6569643Y-11646786D02*
X6583928Y-11632500D01*
X6612500Y-11618214D01*
X6655357Y-11618214D01*
X6683928Y-11632500D01*
X6698214Y-11661071D01*
X6698214Y-11818214D01*
X6698214Y-11661071D02*
X6712500Y-11632500D01*
X6741071Y-11618214D01*
X6783928Y-11618214D01*
X6812500Y-11632500D01*
X6826786Y-11661071D01*
X6826786Y-11818214D01*
X6969643Y-11818214D02*
X6969643Y-11618214D01*
X6969643Y-11646786D02*
X6983928Y-11632500D01*
X7012500Y-11618214D01*
X7055357Y-11618214D01*
X7083928Y-11632500D01*
X7098214Y-11661071D01*
X7098214Y-11818214D01*
X7098214Y-11661071D02*
X7112500Y-11632500D01*
X7141071Y-11618214D01*
X7183928Y-11618214D01*
X7212500Y-11632500D01*
X7226786Y-11661071D01*
X7226786Y-11818214D01*
X7812500Y-11503929D02*
X7555357Y-11889643D01*
X8198214Y-11518214D02*
X8226786Y-11518214D01*
X8255357Y-11532500D01*
X8269643Y-11546786D01*
X8283928Y-11575357D01*
X8298214Y-11632500D01*
X8298214Y-11703929D01*
X8283928Y-11761071D01*
X8269643Y-11789643D01*
X8255357Y-11803929D01*
X8226786Y-11818214D01*
X8198214Y-11818214D01*
X8169643Y-11803929D01*
X8155357Y-11789643D01*
X8141071Y-11761071D01*
X8126786Y-11703929D01*
X8126786Y-11632500D01*
X8141071Y-11575357D01*
X8155357Y-11546786D01*
X8169643Y-11532500D01*
X8198214Y-11518214D01*
X8426786Y-11789643D02*
X8441071Y-11803929D01*
X8426786Y-11818214D01*
X8412500Y-11803929D01*
X8426786Y-11789643D01*
X8426786Y-11818214D01*
X8726786Y-11818214D02*
X8555357Y-11818214D01*
X8641071Y-11818214D02*
X8641071Y-11518214D01*
X8612500Y-11561071D01*
X8583928Y-11589643D01*
X8555357Y-11603929D01*
X8983928Y-11618214D02*
X8983928Y-11818214D01*
X8912500Y-11503929D02*
X8841071Y-11718214D01*
X9026786Y-11718214D01*
X9283928Y-11518214D02*
X9141071Y-11518214D01*
X9126786Y-11661071D01*
X9141071Y-11646786D01*
X9169643Y-11632500D01*
X9241071Y-11632500D01*
X9269643Y-11646786D01*
X9283928Y-11661071D01*
X9298214Y-11689643D01*
X9298214Y-11761071D01*
X9283928Y-11789643D01*
X9269643Y-11803929D01*
X9241071Y-11818214D01*
X9169643Y-11818214D01*
X9141071Y-11803929D01*
X9126786Y-11789643D01*
X9398214Y-11518214D02*
X9598214Y-11518214D01*
X9469643Y-11818214D01*
X9698214Y-11518214D02*
X9698214Y-11575357D01*
X9812500Y-11518214D02*
X9812500Y-11575357D01*
X10255357Y-11932500D02*
X10241071Y-11918214D01*
X10212500Y-11875357D01*
X10198214Y-11846786D01*
X10183928Y-11803929D01*
X10169643Y-11732500D01*
X10169643Y-11675357D01*
X10183928Y-11603929D01*
X10198214Y-11561071D01*
X10212500Y-11532500D01*
X10241071Y-11489643D01*
X10255357Y-11475357D01*
X10355357Y-11546786D02*
X10369643Y-11532500D01*
X10398214Y-11518214D01*
X10469643Y-11518214D01*
X10498214Y-11532500D01*
X10512500Y-11546786D01*
X10526786Y-11575357D01*
X10526786Y-11603929D01*
X10512500Y-11646786D01*
X10341071Y-11818214D01*
X10526786Y-11818214D01*
X10883928Y-11818214D02*
X10883928Y-11518214D01*
X11012500Y-11818214D02*
X11012500Y-11661071D01*
X10998214Y-11632500D01*
X10969643Y-11618214D01*
X10926786Y-11618214D01*
X10898214Y-11632500D01*
X10883928Y-11646786D01*
X11198214Y-11818214D02*
X11169643Y-11803929D01*
X11155357Y-11789643D01*
X11141071Y-11761071D01*
X11141071Y-11675357D01*
X11155357Y-11646786D01*
X11169643Y-11632500D01*
X11198214Y-11618214D01*
X11241071Y-11618214D01*
X11269643Y-11632500D01*
X11283928Y-11646786D01*
X11298214Y-11675357D01*
X11298214Y-11761071D01*
X11283928Y-11789643D01*
X11269643Y-11803929D01*
X11241071Y-11818214D01*
X11198214Y-11818214D01*
X11469643Y-11818214D02*
X11441071Y-11803929D01*
X11426786Y-11775357D01*
X11426786Y-11518214D01*
X11698214Y-11803929D02*
X11669643Y-11818214D01*
X11612500Y-11818214D01*
X11583928Y-11803929D01*
X11569643Y-11775357D01*
X11569643Y-11661071D01*
X11583928Y-11632500D01*
X11612500Y-11618214D01*
X11669643Y-11618214D01*
X11698214Y-11632500D01*
X11712500Y-11661071D01*
X11712500Y-11689643D01*
X11569643Y-11718214D01*
X11826786Y-11803929D02*
X11855357Y-11818214D01*
X11912500Y-11818214D01*
X11941071Y-11803929D01*
X11955357Y-11775357D01*
X11955357Y-11761071D01*
X11941071Y-11732500D01*
X11912500Y-11718214D01*
X11869643Y-11718214D01*
X11841071Y-11703929D01*
X11826786Y-11675357D01*
X11826786Y-11661071D01*
X11841071Y-11632500D01*
X11869643Y-11618214D01*
X11912500Y-11618214D01*
X11941071Y-11632500D01*
X12055357Y-11932500D02*
X12069643Y-11918214D01*
X12098214Y-11875357D01*
X12112500Y-11846786D01*
X12126786Y-11803929D01*
X12141071Y-11732500D01*
X12141071Y-11675357D01*
X12126786Y-11603929D01*
X12112500Y-11561071D01*
X12098214Y-11532500D01*
X12069643Y-11489643D01*
X12055357Y-11475357D01*
X12598214Y-11932500D02*
X12583928Y-11918214D01*
X12555357Y-11875357D01*
X12541071Y-11846786D01*
X12526786Y-11803929D01*
X12512500Y-11732500D01*
X12512500Y-11675357D01*
X12526786Y-11603929D01*
X12541071Y-11561071D01*
X12555357Y-11532500D01*
X12583928Y-11489643D01*
X12598214Y-11475357D01*
X12712500Y-11618214D02*
X12712500Y-11818214D01*
X12712500Y-11646786D02*
X12726786Y-11632500D01*
X12755357Y-11618214D01*
X12798214Y-11618214D01*
X12826786Y-11632500D01*
X12841071Y-11661071D01*
X12841071Y-11818214D01*
X13026786Y-11818214D02*
X12998214Y-11803929D01*
X12983928Y-11789643D01*
X12969643Y-11761071D01*
X12969643Y-11675357D01*
X12983928Y-11646786D01*
X12998214Y-11632500D01*
X13026786Y-11618214D01*
X13069643Y-11618214D01*
X13098214Y-11632500D01*
X13112500Y-11646786D01*
X13126786Y-11675357D01*
X13126786Y-11761071D01*
X13112500Y-11789643D01*
X13098214Y-11803929D01*
X13069643Y-11818214D01*
X13026786Y-11818214D01*
X13212500Y-11618214D02*
X13326786Y-11618214D01*
X13255357Y-11518214D02*
X13255357Y-11775357D01*
X13269643Y-11803929D01*
X13298214Y-11818214D01*
X13326786Y-11818214D01*
X13655357Y-11618214D02*
X13655357Y-11918214D01*
X13655357Y-11632500D02*
X13683928Y-11618214D01*
X13741071Y-11618214D01*
X13769643Y-11632500D01*
X13783928Y-11646786D01*
X13798214Y-11675357D01*
X13798214Y-11761071D01*
X13783928Y-11789643D01*
X13769643Y-11803929D01*
X13741071Y-11818214D01*
X13683928Y-11818214D01*
X13655357Y-11803929D01*
X13969643Y-11818214D02*
X13941071Y-11803929D01*
X13926786Y-11775357D01*
X13926786Y-11518214D01*
X14212500Y-11818214D02*
X14212500Y-11661071D01*
X14198214Y-11632500D01*
X14169643Y-11618214D01*
X14112500Y-11618214D01*
X14083928Y-11632500D01*
X14212500Y-11803929D02*
X14183928Y-11818214D01*
X14112500Y-11818214D01*
X14083928Y-11803929D01*
X14069643Y-11775357D01*
X14069643Y-11746786D01*
X14083928Y-11718214D01*
X14112500Y-11703929D01*
X14183928Y-11703929D01*
X14212500Y-11689643D01*
X14312500Y-11618214D02*
X14426786Y-11618214D01*
X14355357Y-11518214D02*
X14355357Y-11775357D01*
X14369643Y-11803929D01*
X14398214Y-11818214D01*
X14426786Y-11818214D01*
X14641071Y-11803929D02*
X14612500Y-11818214D01*
X14555357Y-11818214D01*
X14526786Y-11803929D01*
X14512500Y-11775357D01*
X14512500Y-11661071D01*
X14526786Y-11632500D01*
X14555357Y-11618214D01*
X14612500Y-11618214D01*
X14641071Y-11632500D01*
X14655357Y-11661071D01*
X14655357Y-11689643D01*
X14512500Y-11718214D01*
X14912500Y-11818214D02*
X14912500Y-11518214D01*
X14912500Y-11803929D02*
X14883928Y-11818214D01*
X14826786Y-11818214D01*
X14798214Y-11803929D01*
X14783928Y-11789643D01*
X14769643Y-11761071D01*
X14769643Y-11675357D01*
X14783928Y-11646786D01*
X14798214Y-11632500D01*
X14826786Y-11618214D01*
X14883928Y-11618214D01*
X14912500Y-11632500D01*
X15026786Y-11932500D02*
X15041071Y-11918214D01*
X15069643Y-11875357D01*
X15083928Y-11846786D01*
X15098214Y-11803929D01*
X15112500Y-11732500D01*
X15112500Y-11675357D01*
X15098214Y-11603929D01*
X15083928Y-11561071D01*
X15069643Y-11532500D01*
X15041071Y-11489643D01*
X15026786Y-11475357D01*
M02*
