M48
; DRILL file {KiCad 5.1.12-84ad8e8a86~92~ubuntu20.04.1} date dom 9 gen 2022, 20:19:20
; FORMAT={-:-/ absolute / metric / decimal}
; #@! TF.CreationDate,2022-01-09T20:19:20+01:00
; #@! TF.GenerationSoftware,Kicad,Pcbnew,5.1.12-84ad8e8a86~92~ubuntu20.04.1
; #@! TF.FileFunction,Plated,1,2,PTH
FMAT,2
METRIC
T1C0.350
T2C0.762
T3C1.000
T4C1.250
T5C1.300
T6C1.500
%
G90
G05
T1
X50.927Y-89.281
X50.927Y-90.551
X51.181Y-85.598
X53.34Y-81.377
X53.848Y-90.932
X53.975Y-101.854
X56.769Y-88.392
X56.896Y-72.009
X57.15Y-89.535
X57.15Y-98.425
X57.658Y-79.502
X57.718Y-71.594
X58.166Y-89.535
X58.674Y-101.854
X58.928Y-71.628
X59.182Y-98.298
X59.274Y-92.675
X59.436Y-79.756
X59.944Y-101.838
X60.071Y-80.518
X60.198Y-94.996
X60.325Y-86.233
X60.96Y-98.044
X60.991Y-88.392
X61.214Y-94.234
X63.119Y-96.52
X63.119Y-101.617
X63.881Y-71.628
X64.135Y-90.932
X67.093Y-71.665
X67.691Y-80.518
X67.818Y-86.106
X68.326Y-99.568
X68.58Y-88.519
X70.612Y-99.822
X70.612Y-100.838
X70.993Y-84.582
X71.501Y-90.932
X72.089Y-95.711
X72.136Y-98.425
X73.025Y-97.663
X73.152Y-79.756
X75.057Y-83.947
X75.184Y-88.392
X75.565Y-95.758
X76.181Y-96.501
X78.105Y-78.994
X79.883Y-69.088
X82.677Y-73.66
X82.931Y-93.853
X82.931Y-95.758
X83.058Y-62.23
X83.399Y-88.138
X84.074Y-84.074
X84.074Y-91.821
X84.836Y-86.233
X85.06Y-99.03
X85.09Y-92.71
X85.471Y-69.215
X85.471Y-71.755
X85.979Y-80.518
X85.979Y-93.853
X92.456Y-78.994
X93.98Y-84.074
X100.711Y-79.756
X103.352Y-82.195
X104.521Y-75.311
X104.521Y-76.581
X104.648Y-77.978
X107.061Y-84.074
X114.935Y-82.169
X123.063Y-74.295
X123.063Y-93.305
X123.698Y-93.98
X124.079Y-97.536
X125.73Y-95.758
X126.111Y-70.739
X128.651Y-82.296
X128.905Y-85.852
X130.939Y-66.675
X132.842Y-86.868
X135.001Y-89.892
X137.16Y-85.09
T2
X84.074Y-73.406
X84.074Y-101.346
X86.614Y-73.406
X86.614Y-101.346
X89.154Y-73.406
X89.154Y-101.346
X91.694Y-73.406
X91.694Y-101.346
X94.234Y-73.406
X94.234Y-101.346
X96.774Y-73.406
X96.774Y-101.346
X99.314Y-73.406
X99.314Y-101.346
X101.854Y-73.406
X101.854Y-101.346
X104.394Y-73.406
X104.394Y-101.346
X106.934Y-73.406
X106.934Y-101.346
X109.474Y-73.406
X109.474Y-101.346
X112.014Y-73.406
X112.014Y-101.346
X114.554Y-73.406
X114.554Y-101.346
X117.094Y-73.406
X117.094Y-101.346
X119.634Y-73.406
X119.634Y-101.346
T3
X72.136Y-100.838
X73.152Y-69.088
X73.152Y-83.588
X74.676Y-100.838
X75.652Y-69.088
X77.216Y-100.838
X78.152Y-69.088
X78.152Y-83.588
X79.756Y-100.838
X103.886Y-64.262
X106.426Y-64.262
X108.966Y-64.262
X111.506Y-64.262
X129.794Y-56.388
X137.394Y-56.388
T4
X91.321Y-55.78
X91.321Y-62.23
X123.821Y-55.78
X123.821Y-62.28
T5
X52.828Y-55.118
X56.328Y-55.118
X59.828Y-55.118
X63.328Y-55.118
X66.828Y-55.118
X70.328Y-55.118
X73.828Y-55.118
X77.328Y-55.118
X80.828Y-55.118
X84.328Y-55.118
X133.35Y-97.536
X136.85Y-97.536
T6
X70.052Y-75.938G85X70.052Y-77.238
G05
X81.252Y-75.938G85X81.252Y-77.238
G05
T0
M30
