G04 #@! TF.GenerationSoftware,KiCad,Pcbnew,5.1.12-84ad8e8a86~92~ubuntu20.04.1*
G04 #@! TF.CreationDate,2022-01-06T20:01:19+01:00*
G04 #@! TF.ProjectId,ESPHome-Thermostat-pcb,45535048-6f6d-4652-9d54-6865726d6f73,1.0*
G04 #@! TF.SameCoordinates,Original*
G04 #@! TF.FileFunction,Paste,Bot*
G04 #@! TF.FilePolarity,Positive*
%FSLAX46Y46*%
G04 Gerber Fmt 4.6, Leading zero omitted, Abs format (unit mm)*
G04 Created by KiCad (PCBNEW 5.1.12-84ad8e8a86~92~ubuntu20.04.1) date 2022-01-06 20:01:19*
%MOMM*%
%LPD*%
G01*
G04 APERTURE LIST*
%ADD10R,3.020000X1.510000*%
%ADD11R,0.800000X0.900000*%
G04 APERTURE END LIST*
G36*
G01*
X67418000Y-51873998D02*
X67418000Y-52774002D01*
G75*
G02*
X67168002Y-53024000I-249998J0D01*
G01*
X66642998Y-53024000D01*
G75*
G02*
X66393000Y-52774002I0J249998D01*
G01*
X66393000Y-51873998D01*
G75*
G02*
X66642998Y-51624000I249998J0D01*
G01*
X67168002Y-51624000D01*
G75*
G02*
X67418000Y-51873998I0J-249998D01*
G01*
G37*
G36*
G01*
X69243000Y-51873998D02*
X69243000Y-52774002D01*
G75*
G02*
X68993002Y-53024000I-249998J0D01*
G01*
X68467998Y-53024000D01*
G75*
G02*
X68218000Y-52774002I0J249998D01*
G01*
X68218000Y-51873998D01*
G75*
G02*
X68467998Y-51624000I249998J0D01*
G01*
X68993002Y-51624000D01*
G75*
G02*
X69243000Y-51873998I0J-249998D01*
G01*
G37*
G36*
G01*
X70870500Y-51873998D02*
X70870500Y-52774002D01*
G75*
G02*
X70620502Y-53024000I-249998J0D01*
G01*
X70095498Y-53024000D01*
G75*
G02*
X69845500Y-52774002I0J249998D01*
G01*
X69845500Y-51873998D01*
G75*
G02*
X70095498Y-51624000I249998J0D01*
G01*
X70620502Y-51624000D01*
G75*
G02*
X70870500Y-51873998I0J-249998D01*
G01*
G37*
G36*
G01*
X72695500Y-51873998D02*
X72695500Y-52774002D01*
G75*
G02*
X72445502Y-53024000I-249998J0D01*
G01*
X71920498Y-53024000D01*
G75*
G02*
X71670500Y-52774002I0J249998D01*
G01*
X71670500Y-51873998D01*
G75*
G02*
X71920498Y-51624000I249998J0D01*
G01*
X72445502Y-51624000D01*
G75*
G02*
X72695500Y-51873998I0J-249998D01*
G01*
G37*
G36*
G01*
X74426500Y-51873998D02*
X74426500Y-52774002D01*
G75*
G02*
X74176502Y-53024000I-249998J0D01*
G01*
X73651498Y-53024000D01*
G75*
G02*
X73401500Y-52774002I0J249998D01*
G01*
X73401500Y-51873998D01*
G75*
G02*
X73651498Y-51624000I249998J0D01*
G01*
X74176502Y-51624000D01*
G75*
G02*
X74426500Y-51873998I0J-249998D01*
G01*
G37*
G36*
G01*
X76251500Y-51873998D02*
X76251500Y-52774002D01*
G75*
G02*
X76001502Y-53024000I-249998J0D01*
G01*
X75476498Y-53024000D01*
G75*
G02*
X75226500Y-52774002I0J249998D01*
G01*
X75226500Y-51873998D01*
G75*
G02*
X75476498Y-51624000I249998J0D01*
G01*
X76001502Y-51624000D01*
G75*
G02*
X76251500Y-51873998I0J-249998D01*
G01*
G37*
G36*
G01*
X56750000Y-51873998D02*
X56750000Y-52774002D01*
G75*
G02*
X56500002Y-53024000I-249998J0D01*
G01*
X55974998Y-53024000D01*
G75*
G02*
X55725000Y-52774002I0J249998D01*
G01*
X55725000Y-51873998D01*
G75*
G02*
X55974998Y-51624000I249998J0D01*
G01*
X56500002Y-51624000D01*
G75*
G02*
X56750000Y-51873998I0J-249998D01*
G01*
G37*
G36*
G01*
X58575000Y-51873998D02*
X58575000Y-52774002D01*
G75*
G02*
X58325002Y-53024000I-249998J0D01*
G01*
X57799998Y-53024000D01*
G75*
G02*
X57550000Y-52774002I0J249998D01*
G01*
X57550000Y-51873998D01*
G75*
G02*
X57799998Y-51624000I249998J0D01*
G01*
X58325002Y-51624000D01*
G75*
G02*
X58575000Y-51873998I0J-249998D01*
G01*
G37*
G36*
G01*
X60306000Y-51873998D02*
X60306000Y-52774002D01*
G75*
G02*
X60056002Y-53024000I-249998J0D01*
G01*
X59530998Y-53024000D01*
G75*
G02*
X59281000Y-52774002I0J249998D01*
G01*
X59281000Y-51873998D01*
G75*
G02*
X59530998Y-51624000I249998J0D01*
G01*
X60056002Y-51624000D01*
G75*
G02*
X60306000Y-51873998I0J-249998D01*
G01*
G37*
G36*
G01*
X62131000Y-51873998D02*
X62131000Y-52774002D01*
G75*
G02*
X61881002Y-53024000I-249998J0D01*
G01*
X61355998Y-53024000D01*
G75*
G02*
X61106000Y-52774002I0J249998D01*
G01*
X61106000Y-51873998D01*
G75*
G02*
X61355998Y-51624000I249998J0D01*
G01*
X61881002Y-51624000D01*
G75*
G02*
X62131000Y-51873998I0J-249998D01*
G01*
G37*
G36*
G01*
X77832000Y-51873998D02*
X77832000Y-52774002D01*
G75*
G02*
X77582002Y-53024000I-249998J0D01*
G01*
X77056998Y-53024000D01*
G75*
G02*
X76807000Y-52774002I0J249998D01*
G01*
X76807000Y-51873998D01*
G75*
G02*
X77056998Y-51624000I249998J0D01*
G01*
X77582002Y-51624000D01*
G75*
G02*
X77832000Y-51873998I0J-249998D01*
G01*
G37*
G36*
G01*
X79657000Y-51873998D02*
X79657000Y-52774002D01*
G75*
G02*
X79407002Y-53024000I-249998J0D01*
G01*
X78881998Y-53024000D01*
G75*
G02*
X78632000Y-52774002I0J249998D01*
G01*
X78632000Y-51873998D01*
G75*
G02*
X78881998Y-51624000I249998J0D01*
G01*
X79407002Y-51624000D01*
G75*
G02*
X79657000Y-51873998I0J-249998D01*
G01*
G37*
G36*
G01*
X63862000Y-51873998D02*
X63862000Y-52774002D01*
G75*
G02*
X63612002Y-53024000I-249998J0D01*
G01*
X63086998Y-53024000D01*
G75*
G02*
X62837000Y-52774002I0J249998D01*
G01*
X62837000Y-51873998D01*
G75*
G02*
X63086998Y-51624000I249998J0D01*
G01*
X63612002Y-51624000D01*
G75*
G02*
X63862000Y-51873998I0J-249998D01*
G01*
G37*
G36*
G01*
X65687000Y-51873998D02*
X65687000Y-52774002D01*
G75*
G02*
X65437002Y-53024000I-249998J0D01*
G01*
X64911998Y-53024000D01*
G75*
G02*
X64662000Y-52774002I0J249998D01*
G01*
X64662000Y-51873998D01*
G75*
G02*
X64911998Y-51624000I249998J0D01*
G01*
X65437002Y-51624000D01*
G75*
G02*
X65687000Y-51873998I0J-249998D01*
G01*
G37*
G36*
G01*
X126892000Y-86302002D02*
X126892000Y-85401998D01*
G75*
G02*
X127141998Y-85152000I249998J0D01*
G01*
X127667002Y-85152000D01*
G75*
G02*
X127917000Y-85401998I0J-249998D01*
G01*
X127917000Y-86302002D01*
G75*
G02*
X127667002Y-86552000I-249998J0D01*
G01*
X127141998Y-86552000D01*
G75*
G02*
X126892000Y-86302002I0J249998D01*
G01*
G37*
G36*
G01*
X125067000Y-86302002D02*
X125067000Y-85401998D01*
G75*
G02*
X125316998Y-85152000I249998J0D01*
G01*
X125842002Y-85152000D01*
G75*
G02*
X126092000Y-85401998I0J-249998D01*
G01*
X126092000Y-86302002D01*
G75*
G02*
X125842002Y-86552000I-249998J0D01*
G01*
X125316998Y-86552000D01*
G75*
G02*
X125067000Y-86302002I0J249998D01*
G01*
G37*
G36*
G01*
X63100000Y-73209998D02*
X63100000Y-74110002D01*
G75*
G02*
X62850002Y-74360000I-249998J0D01*
G01*
X62324998Y-74360000D01*
G75*
G02*
X62075000Y-74110002I0J249998D01*
G01*
X62075000Y-73209998D01*
G75*
G02*
X62324998Y-72960000I249998J0D01*
G01*
X62850002Y-72960000D01*
G75*
G02*
X63100000Y-73209998I0J-249998D01*
G01*
G37*
G36*
G01*
X64925000Y-73209998D02*
X64925000Y-74110002D01*
G75*
G02*
X64675002Y-74360000I-249998J0D01*
G01*
X64149998Y-74360000D01*
G75*
G02*
X63900000Y-74110002I0J249998D01*
G01*
X63900000Y-73209998D01*
G75*
G02*
X64149998Y-72960000I249998J0D01*
G01*
X64675002Y-72960000D01*
G75*
G02*
X64925000Y-73209998I0J-249998D01*
G01*
G37*
G36*
G01*
X126892000Y-74618002D02*
X126892000Y-73717998D01*
G75*
G02*
X127141998Y-73468000I249998J0D01*
G01*
X127667002Y-73468000D01*
G75*
G02*
X127917000Y-73717998I0J-249998D01*
G01*
X127917000Y-74618002D01*
G75*
G02*
X127667002Y-74868000I-249998J0D01*
G01*
X127141998Y-74868000D01*
G75*
G02*
X126892000Y-74618002I0J249998D01*
G01*
G37*
G36*
G01*
X125067000Y-74618002D02*
X125067000Y-73717998D01*
G75*
G02*
X125316998Y-73468000I249998J0D01*
G01*
X125842002Y-73468000D01*
G75*
G02*
X126092000Y-73717998I0J-249998D01*
G01*
X126092000Y-74618002D01*
G75*
G02*
X125842002Y-74868000I-249998J0D01*
G01*
X125316998Y-74868000D01*
G75*
G02*
X125067000Y-74618002I0J249998D01*
G01*
G37*
G36*
G01*
X63100000Y-97339998D02*
X63100000Y-98240002D01*
G75*
G02*
X62850002Y-98490000I-249998J0D01*
G01*
X62324998Y-98490000D01*
G75*
G02*
X62075000Y-98240002I0J249998D01*
G01*
X62075000Y-97339998D01*
G75*
G02*
X62324998Y-97090000I249998J0D01*
G01*
X62850002Y-97090000D01*
G75*
G02*
X63100000Y-97339998I0J-249998D01*
G01*
G37*
G36*
G01*
X64925000Y-97339998D02*
X64925000Y-98240002D01*
G75*
G02*
X64675002Y-98490000I-249998J0D01*
G01*
X64149998Y-98490000D01*
G75*
G02*
X63900000Y-98240002I0J249998D01*
G01*
X63900000Y-97339998D01*
G75*
G02*
X64149998Y-97090000I249998J0D01*
G01*
X64675002Y-97090000D01*
G75*
G02*
X64925000Y-97339998I0J-249998D01*
G01*
G37*
G36*
G01*
X126892000Y-97986002D02*
X126892000Y-97085998D01*
G75*
G02*
X127141998Y-96836000I249998J0D01*
G01*
X127667002Y-96836000D01*
G75*
G02*
X127917000Y-97085998I0J-249998D01*
G01*
X127917000Y-97986002D01*
G75*
G02*
X127667002Y-98236000I-249998J0D01*
G01*
X127141998Y-98236000D01*
G75*
G02*
X126892000Y-97986002I0J249998D01*
G01*
G37*
G36*
G01*
X125067000Y-97986002D02*
X125067000Y-97085998D01*
G75*
G02*
X125316998Y-96836000I249998J0D01*
G01*
X125842002Y-96836000D01*
G75*
G02*
X126092000Y-97085998I0J-249998D01*
G01*
X126092000Y-97986002D01*
G75*
G02*
X125842002Y-98236000I-249998J0D01*
G01*
X125316998Y-98236000D01*
G75*
G02*
X125067000Y-97986002I0J249998D01*
G01*
G37*
G36*
G01*
X63250500Y-61779998D02*
X63250500Y-62680002D01*
G75*
G02*
X63000502Y-62930000I-249998J0D01*
G01*
X62475498Y-62930000D01*
G75*
G02*
X62225500Y-62680002I0J249998D01*
G01*
X62225500Y-61779998D01*
G75*
G02*
X62475498Y-61530000I249998J0D01*
G01*
X63000502Y-61530000D01*
G75*
G02*
X63250500Y-61779998I0J-249998D01*
G01*
G37*
G36*
G01*
X65075500Y-61779998D02*
X65075500Y-62680002D01*
G75*
G02*
X64825502Y-62930000I-249998J0D01*
G01*
X64300498Y-62930000D01*
G75*
G02*
X64050500Y-62680002I0J249998D01*
G01*
X64050500Y-61779998D01*
G75*
G02*
X64300498Y-61530000I249998J0D01*
G01*
X64825502Y-61530000D01*
G75*
G02*
X65075500Y-61779998I0J-249998D01*
G01*
G37*
G36*
G01*
X81284500Y-51873998D02*
X81284500Y-52774002D01*
G75*
G02*
X81034502Y-53024000I-249998J0D01*
G01*
X80509498Y-53024000D01*
G75*
G02*
X80259500Y-52774002I0J249998D01*
G01*
X80259500Y-51873998D01*
G75*
G02*
X80509498Y-51624000I249998J0D01*
G01*
X81034502Y-51624000D01*
G75*
G02*
X81284500Y-51873998I0J-249998D01*
G01*
G37*
G36*
G01*
X83109500Y-51873998D02*
X83109500Y-52774002D01*
G75*
G02*
X82859502Y-53024000I-249998J0D01*
G01*
X82334498Y-53024000D01*
G75*
G02*
X82084500Y-52774002I0J249998D01*
G01*
X82084500Y-51873998D01*
G75*
G02*
X82334498Y-51624000I249998J0D01*
G01*
X82859502Y-51624000D01*
G75*
G02*
X83109500Y-51873998I0J-249998D01*
G01*
G37*
G36*
G01*
X63203500Y-85401998D02*
X63203500Y-86302002D01*
G75*
G02*
X62953502Y-86552000I-249998J0D01*
G01*
X62428498Y-86552000D01*
G75*
G02*
X62178500Y-86302002I0J249998D01*
G01*
X62178500Y-85401998D01*
G75*
G02*
X62428498Y-85152000I249998J0D01*
G01*
X62953502Y-85152000D01*
G75*
G02*
X63203500Y-85401998I0J-249998D01*
G01*
G37*
G36*
G01*
X65028500Y-85401998D02*
X65028500Y-86302002D01*
G75*
G02*
X64778502Y-86552000I-249998J0D01*
G01*
X64253498Y-86552000D01*
G75*
G02*
X64003500Y-86302002I0J249998D01*
G01*
X64003500Y-85401998D01*
G75*
G02*
X64253498Y-85152000I249998J0D01*
G01*
X64778502Y-85152000D01*
G75*
G02*
X65028500Y-85401998I0J-249998D01*
G01*
G37*
G36*
G01*
X126092000Y-66097998D02*
X126092000Y-66998002D01*
G75*
G02*
X125842002Y-67248000I-249998J0D01*
G01*
X125316998Y-67248000D01*
G75*
G02*
X125067000Y-66998002I0J249998D01*
G01*
X125067000Y-66097998D01*
G75*
G02*
X125316998Y-65848000I249998J0D01*
G01*
X125842002Y-65848000D01*
G75*
G02*
X126092000Y-66097998I0J-249998D01*
G01*
G37*
G36*
G01*
X127917000Y-66097998D02*
X127917000Y-66998002D01*
G75*
G02*
X127667002Y-67248000I-249998J0D01*
G01*
X127141998Y-67248000D01*
G75*
G02*
X126892000Y-66998002I0J249998D01*
G01*
X126892000Y-66097998D01*
G75*
G02*
X127141998Y-65848000I249998J0D01*
G01*
X127667002Y-65848000D01*
G75*
G02*
X127917000Y-66097998I0J-249998D01*
G01*
G37*
G36*
G01*
X126942000Y-82752250D02*
X126942000Y-81839750D01*
G75*
G02*
X127185750Y-81596000I243750J0D01*
G01*
X127673250Y-81596000D01*
G75*
G02*
X127917000Y-81839750I0J-243750D01*
G01*
X127917000Y-82752250D01*
G75*
G02*
X127673250Y-82996000I-243750J0D01*
G01*
X127185750Y-82996000D01*
G75*
G02*
X126942000Y-82752250I0J243750D01*
G01*
G37*
G36*
G01*
X125067000Y-82752250D02*
X125067000Y-81839750D01*
G75*
G02*
X125310750Y-81596000I243750J0D01*
G01*
X125798250Y-81596000D01*
G75*
G02*
X126042000Y-81839750I0J-243750D01*
G01*
X126042000Y-82752250D01*
G75*
G02*
X125798250Y-82996000I-243750J0D01*
G01*
X125310750Y-82996000D01*
G75*
G02*
X125067000Y-82752250I0J243750D01*
G01*
G37*
G36*
G01*
X63050000Y-69647750D02*
X63050000Y-70560250D01*
G75*
G02*
X62806250Y-70804000I-243750J0D01*
G01*
X62318750Y-70804000D01*
G75*
G02*
X62075000Y-70560250I0J243750D01*
G01*
X62075000Y-69647750D01*
G75*
G02*
X62318750Y-69404000I243750J0D01*
G01*
X62806250Y-69404000D01*
G75*
G02*
X63050000Y-69647750I0J-243750D01*
G01*
G37*
G36*
G01*
X64925000Y-69647750D02*
X64925000Y-70560250D01*
G75*
G02*
X64681250Y-70804000I-243750J0D01*
G01*
X64193750Y-70804000D01*
G75*
G02*
X63950000Y-70560250I0J243750D01*
G01*
X63950000Y-69647750D01*
G75*
G02*
X64193750Y-69404000I243750J0D01*
G01*
X64681250Y-69404000D01*
G75*
G02*
X64925000Y-69647750I0J-243750D01*
G01*
G37*
G36*
G01*
X127020500Y-71068250D02*
X127020500Y-70155750D01*
G75*
G02*
X127264250Y-69912000I243750J0D01*
G01*
X127751750Y-69912000D01*
G75*
G02*
X127995500Y-70155750I0J-243750D01*
G01*
X127995500Y-71068250D01*
G75*
G02*
X127751750Y-71312000I-243750J0D01*
G01*
X127264250Y-71312000D01*
G75*
G02*
X127020500Y-71068250I0J243750D01*
G01*
G37*
G36*
G01*
X125145500Y-71068250D02*
X125145500Y-70155750D01*
G75*
G02*
X125389250Y-69912000I243750J0D01*
G01*
X125876750Y-69912000D01*
G75*
G02*
X126120500Y-70155750I0J-243750D01*
G01*
X126120500Y-71068250D01*
G75*
G02*
X125876750Y-71312000I-243750J0D01*
G01*
X125389250Y-71312000D01*
G75*
G02*
X125145500Y-71068250I0J243750D01*
G01*
G37*
G36*
G01*
X63050000Y-93523750D02*
X63050000Y-94436250D01*
G75*
G02*
X62806250Y-94680000I-243750J0D01*
G01*
X62318750Y-94680000D01*
G75*
G02*
X62075000Y-94436250I0J243750D01*
G01*
X62075000Y-93523750D01*
G75*
G02*
X62318750Y-93280000I243750J0D01*
G01*
X62806250Y-93280000D01*
G75*
G02*
X63050000Y-93523750I0J-243750D01*
G01*
G37*
G36*
G01*
X64925000Y-93523750D02*
X64925000Y-94436250D01*
G75*
G02*
X64681250Y-94680000I-243750J0D01*
G01*
X64193750Y-94680000D01*
G75*
G02*
X63950000Y-94436250I0J243750D01*
G01*
X63950000Y-93523750D01*
G75*
G02*
X64193750Y-93280000I243750J0D01*
G01*
X64681250Y-93280000D01*
G75*
G02*
X64925000Y-93523750I0J-243750D01*
G01*
G37*
G36*
G01*
X126942000Y-94436250D02*
X126942000Y-93523750D01*
G75*
G02*
X127185750Y-93280000I243750J0D01*
G01*
X127673250Y-93280000D01*
G75*
G02*
X127917000Y-93523750I0J-243750D01*
G01*
X127917000Y-94436250D01*
G75*
G02*
X127673250Y-94680000I-243750J0D01*
G01*
X127185750Y-94680000D01*
G75*
G02*
X126942000Y-94436250I0J243750D01*
G01*
G37*
G36*
G01*
X125067000Y-94436250D02*
X125067000Y-93523750D01*
G75*
G02*
X125310750Y-93280000I243750J0D01*
G01*
X125798250Y-93280000D01*
G75*
G02*
X126042000Y-93523750I0J-243750D01*
G01*
X126042000Y-94436250D01*
G75*
G02*
X125798250Y-94680000I-243750J0D01*
G01*
X125310750Y-94680000D01*
G75*
G02*
X125067000Y-94436250I0J243750D01*
G01*
G37*
G36*
G01*
X63050000Y-58471750D02*
X63050000Y-59384250D01*
G75*
G02*
X62806250Y-59628000I-243750J0D01*
G01*
X62318750Y-59628000D01*
G75*
G02*
X62075000Y-59384250I0J243750D01*
G01*
X62075000Y-58471750D01*
G75*
G02*
X62318750Y-58228000I243750J0D01*
G01*
X62806250Y-58228000D01*
G75*
G02*
X63050000Y-58471750I0J-243750D01*
G01*
G37*
G36*
G01*
X64925000Y-58471750D02*
X64925000Y-59384250D01*
G75*
G02*
X64681250Y-59628000I-243750J0D01*
G01*
X64193750Y-59628000D01*
G75*
G02*
X63950000Y-59384250I0J243750D01*
G01*
X63950000Y-58471750D01*
G75*
G02*
X64193750Y-58228000I243750J0D01*
G01*
X64681250Y-58228000D01*
G75*
G02*
X64925000Y-58471750I0J-243750D01*
G01*
G37*
G36*
G01*
X63050000Y-81839750D02*
X63050000Y-82752250D01*
G75*
G02*
X62806250Y-82996000I-243750J0D01*
G01*
X62318750Y-82996000D01*
G75*
G02*
X62075000Y-82752250I0J243750D01*
G01*
X62075000Y-81839750D01*
G75*
G02*
X62318750Y-81596000I243750J0D01*
G01*
X62806250Y-81596000D01*
G75*
G02*
X63050000Y-81839750I0J-243750D01*
G01*
G37*
G36*
G01*
X64925000Y-81839750D02*
X64925000Y-82752250D01*
G75*
G02*
X64681250Y-82996000I-243750J0D01*
G01*
X64193750Y-82996000D01*
G75*
G02*
X63950000Y-82752250I0J243750D01*
G01*
X63950000Y-81839750D01*
G75*
G02*
X64193750Y-81596000I243750J0D01*
G01*
X64681250Y-81596000D01*
G75*
G02*
X64925000Y-81839750I0J-243750D01*
G01*
G37*
G36*
G01*
X127020500Y-59384250D02*
X127020500Y-58471750D01*
G75*
G02*
X127264250Y-58228000I243750J0D01*
G01*
X127751750Y-58228000D01*
G75*
G02*
X127995500Y-58471750I0J-243750D01*
G01*
X127995500Y-59384250D01*
G75*
G02*
X127751750Y-59628000I-243750J0D01*
G01*
X127264250Y-59628000D01*
G75*
G02*
X127020500Y-59384250I0J243750D01*
G01*
G37*
G36*
G01*
X125145500Y-59384250D02*
X125145500Y-58471750D01*
G75*
G02*
X125389250Y-58228000I243750J0D01*
G01*
X125876750Y-58228000D01*
G75*
G02*
X126120500Y-58471750I0J-243750D01*
G01*
X126120500Y-59384250D01*
G75*
G02*
X125876750Y-59628000I-243750J0D01*
G01*
X125389250Y-59628000D01*
G75*
G02*
X125145500Y-59384250I0J243750D01*
G01*
G37*
D10*
X134874000Y-88318000D03*
X134874000Y-85418000D03*
D11*
X134874000Y-94091000D03*
X135824000Y-92091000D03*
X133924000Y-92091000D03*
M02*
